<?xml version="1.0" standalone="no"?>
<!DOCTYPE svg PUBLIC "-//W3C//DTD SVG 1.1//EN" "http://www.w3.org/Graphics/SVG/1.1/DTD/svg11.dtd" >
<svg xmlns="http://www.w3.org/2000/svg">
<metadata>
This is a custom SVG webfont generated by Font Squirrel.
Copyright   : Copyright 2001 by Daniel Midgley All for love and love for all
</metadata>
<defs>
<font id="webfontBcLsXBs2" horiz-adv-x="1298" >
<font-face units-per-em="2048" ascent="1638" descent="-410" />
<missing-glyph horiz-adv-x="634" />
<glyph unicode=" "  horiz-adv-x="634" />
<glyph unicode="&#x09;" horiz-adv-x="634" />
<glyph unicode="&#xa0;" horiz-adv-x="634" />
<glyph unicode="!" horiz-adv-x="493" d="M92 1419l295 17l-20 -731l4 -312h-262l8 324zM100 109v135l133 22h150l18 -246l-135 -36l-141 8z" />
<glyph unicode="&#x22;" horiz-adv-x="759" d="M72 1440l268 -4l-18 -199l-31 -195l-172 23l-35 188zM420 1440l268 -4l-18 -199l-31 -195l-172 23l-35 188z" />
<glyph unicode="#" horiz-adv-x="1331" d="M102 227l7 222l241 2l2 178h-250l7 223h233l-10 319l243 5l9 -322h198l-2 313l244 -4l-10 -309l215 2l-4 -227l-211 2l2 -178h213l-4 -226l-219 2l-5 -245l-217 4v239h-209v-239l-217 6l-4 233h-252zM575 629l5 -178l202 -5v183h-207z" />
<glyph unicode="$" horiz-adv-x="1165" d="M102 324q236 -18 400 -5l-6 263q-346 98 -346 323q0 117 116 221q104 92 232 121l-4 144l223 -2l-2 -105q94 10 205 12l81 -235q-168 14 -286 6l2 -295q346 -100 346 -270q0 -80 -59 -172q-63 -98 -156 -142q-66 -31 -131 -49v-157l-217 8v119q-158 -12 -342 6zM420 911 q0 -41 74 -71l2 174q-76 -40 -76 -103zM717 369l4 2q84 35 84 104q0 31 -86 51z" />
<glyph unicode="%" horiz-adv-x="1925" d="M102 956q0 176 121 287q51 47 156 80q96 31 158 27q53 -2 124.5 -33t114.5 -76q104 -102 105 -250q0 -137 -88 -241q-59 -68 -165 -110t-179 -34q-147 20 -240 113q-107 106 -107 237zM299 74q25 72 518 614q598 657 615 678q68 -47 215 -121l-609 -690 q-522 -584 -565 -602q-61 51 -174 121zM326 965q6 -70 49 -113t108 -43q86 0 140 70q18 20 28.5 65t7.5 66q-6 45 -41 86q-39 49 -86 53q-29 2 -84 -16.5t-69 -34.5q-59 -65 -53 -133zM1044 336q0 176 121 287q51 47 156 82q96 29 158 26q53 -2 124.5 -33.5t114.5 -74.5 q104 -104 105 -252q0 -135 -88 -240q-59 -70 -165 -112t-179 -31q-147 20 -240 112q-107 107 -107 236zM1268 346q6 -70 49 -113t108 -43q86 0 140 70q18 20 28 68q10 41 9 63q-6 43 -43 89t-84 50q-29 2 -84.5 -16t-69.5 -35q-59 -65 -53 -133z" />
<glyph unicode="&#x26;" horiz-adv-x="1452" d="M102 485q0 88 52 174q37 59 64.5 87t90.5 61q-8 12 -33 123q-12 53 -12 121q0 205 94 292q104 98 445 99q-29 0 325 -12l37 -216q-264 8 -311 9q-260 0 -292 -35t-32 -152q0 -63 7 -112q2 -12 8 -25q12 -27 37 -41q14 -8 116 -8q90 0 258 6l201 8q117 4 172 -12l-22 -225 q-47 -2 -154 -6q-4 -100 -4 -142q0 -193 22.5 -227.5t229.5 -126.5l-82 -176q-221 68 -309 127q-174 -102 -305 -103q-338 0 -433 82q-117 100 -136 136t-27 174zM360 526q0 4 9 -170q0 -20 24 -63q16 -33 35 -66q84 -31 283 -32q94 -2 190 73q8 242 8 359l-202 6 q-274 6 -314 -33q-31 -33 -33 -74z" />
<glyph unicode="'" horiz-adv-x="411" d="M72 1440l268 -4l-18 -199l-31 -195l-172 23l-35 188z" />
<glyph unicode="(" horiz-adv-x="636" d="M72 545q0 94 20.5 291.5t34.5 253.5q16 72 219 561l238 -99q-197 -418 -224 -520q-31 -127 -30 -428q0 -371 43 -520q20 -68 213 -393l-230 -115q-96 188 -217 451q-23 63 -45 249q-22 181 -22 269z" />
<glyph unicode=")" horiz-adv-x="636" d="M51 -309l230 -115l217 451q23 63 45 249q23 180 22 269q-2 94 -21.5 291.5t-33.5 253.5q-16 72 -219 561l-238 -99q197 -418 221 -520q33 -127 33 -428q0 -371 -45 -520q-18 -67 -211 -393z" />
<glyph unicode="*" horiz-adv-x="952" d="M72 1020l155 67l-153 68l129 211l147 -86l-10 160l266 -4l-12 -158l147 88l138 -205l-162 -74l164 -73l-140 -203l-147 88l12 -156l-266 -4l10 160l-149 -88z" />
<glyph unicode="+" horiz-adv-x="937" d="M92 508l246 2l2 211l262 -2v-215l244 10l-4 -215h-240v-207l-258 4l-2 203h-246z" />
<glyph unicode="," horiz-adv-x="485" d="M72 -80l39 160l36 213l267 -6l-70 -271l-108 -221z" />
<glyph unicode="-" horiz-adv-x="897" d="M72 727l753 4l-4 -242h-745z" />
<glyph unicode="." horiz-adv-x="505" d="M102 117v145l134 25h151l16 -264l-135 -39l-141 8z" />
<glyph unicode="/" horiz-adv-x="970" d="M20 -49q0 35 39 121l562 1259l69 164q66 -12 129 -37q45 -18 131 -18l-39 -90l-333 -717l-312 -725q-10 -25 -37 -25q-25 0 -94 43z" />
<glyph unicode="0" horiz-adv-x="1427" d="M92 518q0 129 54.5 255t136.5 201t254 128q156 49 254 45q80 -4 194.5 -53.5t183.5 -116.5q125 -125 160 -297q6 -37 6 -78q0 -236 -143 -401q-86 -100 -244 -168q-147 -63 -264 -64q-242 0 -424 178q-72 72 -120 178.5t-48 192.5zM354 530q4 -51 31 -116q31 -74 72 -113 q100 -100 243 -100q72 0 159 42t138 105q37 49 62 141q20 84 14 132q-10 94 -84 180q-33 43 -100 78q-59 35 -98 39q-66 6 -177.5 -32t-150.5 -79q-121 -134 -109 -277z" />
<glyph unicode="1" horiz-adv-x="708" d="M61 911l267 199l247 18q-10 -498 -26 -1142q-68 12 -94 12q-86 0 -70 2q-49 -4 -109 -33v78q0 119 11 379q8 244 8 377v8l-125 -80z" />
<glyph unicode="2" horiz-adv-x="1187" d="M102 170l551 397q63 43 81 60.5t46 74.5q25 51 25 93q-2 111 -55 139q-25 14 -121 14q-139 0 -221 -17.5t-185 -135.5l-117 209l87 55q104 59 182 86q49 16 223 16q199 0 256 -16q88 -25 139 -129q41 -84 47 -187q8 -127 -69 -272q-31 -59 -445 -338l559 -4l-59 -215 h-846z" />
<glyph unicode="3" horiz-adv-x="1189" d="M92 -293q96 18 326 143q203 111 274 168q39 33 92 95q63 76 64 104q0 117 -266 117q-104 0 -164 -15q-14 -4 -29 -4q-43 0 -74.5 28t-31.5 63t379 505h-504l32 217h834l41 -94l-393 -491q215 -12 295 -68q131 -94 131 -239q0 -84 -119 -230q-29 -35 -154 -166 q-35 -37 -307 -186q-264 -143 -311 -158z" />
<glyph unicode="4" horiz-adv-x="1363" d="M92 182l342 766l236 -84l-287 -635l469 -2l2 875l254 39v-910l164 -2l-31 -223h-137l4 -416h-258v410h-660z" />
<glyph unicode="5" horiz-adv-x="1189" d="M92 -293q160 31 458 229.5t298 280.5q0 125 -270 125q-147 0 -242 -23q-10 -4 -21 -4q-51 0 -105 42t-54 79l90 615l33 77h708l64 -217h-568l-51 -364l160 -2q217 -2 332 -49q174 -74 174 -260q0 -137 -217 -324q-162 -137 -416 -283q-199 -115 -258 -133z" />
<glyph unicode="6" horiz-adv-x="1294" d="M92 416q0 211 146 458q59 86 217 269q131 127 456 305l123 -193q-252 -135 -364 -235q-51 -45 -121 -127q375 -8 510 -133q143 -135 143 -309q0 -66 -18 -136q-49 -182 -221 -274q-154 -84 -365 -76q-295 10 -424 187q-82 112 -82 264zM350 446q8 -90 23 -127 q16 -53 63 -90q74 -59 207 -55q211 6 281 150q29 59 28 114q0 80 -57 150q-82 100 -371 100q-53 0 -114 -2q-68 -154 -60 -240z" />
<glyph unicode="7" horiz-adv-x="1144" d="M51 -344l389 733q164 293 326 524l-649 -4l47 221l883 9l47 -176q-168 -217 -430 -674q-125 -215 -392 -725z" />
<glyph unicode="8" horiz-adv-x="1259" d="M92 383q-2 217 297 360q-242 141 -242 316q0 186 144 289q150 111 344 110q233 0 350 -90q129 -102 119 -319q-6 -158 -240 -295q135 -70 201 -133q94 -90 100 -207q6 -98 -40 -198.5t-126 -158.5q-133 -92 -376 -92q-256 0 -379 82q-150 100 -152 336zM340 352 q0 -100 54.5 -137t226.5 -37q158 0 219 49q29 25 48 76t13 94q-4 53 -47 103q-29 35 -113 73q-63 29 -106 39q-106 -29 -191 -90q-104 -78 -104 -170zM403 1042q-4 -90 213 -170q242 68 240 162q-2 129 -39 162q-45 39 -188 39q-113 0 -180 -51q-40 -31 -46 -142z" />
<glyph unicode="9" horiz-adv-x="1288" d="M92 645q0 57 10 123q33 207 217 305q158 84 390 74q145 -8 235 -43q115 -45 186 -150q53 -74 64 -159q4 -35 2 -172q-2 -221 -166 -490q-190 -309 -674 -620l-131 208l199 129q115 78 187 153l114 114q-369 10 -485 151q-148 176 -148 377zM352 657q0 -182 97 -256 q88 -68 288 -67q51 0 115 4q90 186 78 362q-8 115 -70.5 166.5t-195.5 51.5q-135 0 -207 -39q-31 -16 -64 -58.5t-37 -70.5q-4 -50 -4 -93z" />
<glyph unicode=":" horiz-adv-x="505" d="M102 117v145l134 25h151l16 -264l-135 -39l-141 8zM102 834v145l134 25h151l16 -264l-135 -39l-141 8z" />
<glyph unicode=";" horiz-adv-x="546" d="M133 834v145l134 25h151l16 -264l-135 -39l-141 8zM103 -80l39 160l36 213l267 -6l-70 -271l-108 -221z" />
<glyph unicode="&#x3c;" horiz-adv-x="1118" d="M102 479l715 447l180 -158l-565 -354l584 -340l-203 -146l-700 402z" />
<glyph unicode="=" horiz-adv-x="901" d="M72 141l6 238l751 4l-4 -242h-753zM72 489l6 238l751 4l-4 -242h-753z" />
<glyph unicode="&#x3e;" horiz-adv-x="1118" d="M102 74l203 -146l701 402l10 149l-715 447l-180 -158l565 -354z" />
<glyph unicode="?" horiz-adv-x="1193" d="M102 1323q104 45 324 115q96 20 227 20q201 0 273 -28q39 -14 99 -134t67 -204q4 -55 -35 -213q-41 -172 -76 -201q-27 -18 -180.5 -62.5t-155.5 -48.5q-12 -14 8 -188l-266 -39q-14 150 -14 252q0 104 16 125q29 35 193 76q172 45 187 57t38.5 97t19.5 120 q-2 33 -21.5 82t-38.5 62.5t-142 11.5t-168 -15q-72 -20 -248 -84zM389 106v136l133 22h152l16 -246l-135 -36l-141 8z" />
<glyph unicode="@" horiz-adv-x="1527" d="M123 514q4 217 131 387q68 92 224.5 157.5t322.5 63.5q401 -8 545 -252q63 -109 59 -280q-6 -176 -76 -285q-109 -166 -225 -166q-27 0 -53 8q-92 27 -162 154q-104 -33 -176 -35q-156 -6 -211 39q-92 78 -92 152q2 268 155 372q78 53 201 54q51 0 252 -31l20 -12 q18 -8 43 -6q2 -227 -14 -461l4 -8q6 -20 14 -43q6 -4 15 -5q20 0 65 76t43 193q-6 168 -43 223q-59 86 -157 115q-78 25 -224 20q-252 -4 -362 -147q-88 -111 -96 -269q-6 -125 28 -178q106 -158 324 -157q70 0 137 22q16 0 57 8l105 -123q-47 -20 -92 -37 q-104 -37 -180 -38q-352 -10 -519 221q-67 94 -63 268zM610 545q0 4 4 -80q23 -25 58 -29q84 0 209 33q6 59 6 111v116q-70 16 -107 17q-63 0 -110 -33q-60 -41 -60 -135z" />
<glyph unicode="A" horiz-adv-x="1558" d="M82 16q27 135 86 312q-16 2 -72 6l6 221h138q63 182 186 432l219 436l279 15l225 -461q131 -274 194 -475l76 -226q43 -139 68 -260l-277 -43q-29 172 -77 357l-697 2q-47 -186 -76 -359zM512 559q221 -5 418 -5q66 0 129 1q-82 203 -123 293q-78 174 -150 297 q-145 -248 -274 -586z" />
<glyph unicode="B" horiz-adv-x="1386" d="M174 1419q63 12 236 19q117 4 184 4q365 0 471 -99q74 -72 74 -235q0 -123 -37 -205l-49 -106q84 -16 137 -107q74 -129 74 -182q0 -14 -4 -55q-6 -49 -9 -88q-8 -115 -49 -179q-25 -35 -133 -129q-90 -78 -410 -77q-27 0 -247 6q-46 -5 -91 -5q-68 0 -135 11 q-10 23 -10 108l2 1215q0 20 -4 104zM434 627q2 -139 8 -420q125 -10 221 -10q170 0 248 30q39 51 80 129q8 174 8 170q-4 72 -73 90l-131 17q-9 1 -43 1q-84 0 -318 -7zM438 854h88h95q139 0 165 8q14 4 62 74q41 100 41 166q0 92 -88 112q-44 9 -153 10q-82 0 -199 -5 q-9 -222 -11 -365z" />
<glyph unicode="C" horiz-adv-x="1361" d="M102 557q0 219 88 418q100 227 281 334q190 115 707 129l69 -215q-532 0 -643 -99q-96 -84 -158.5 -240.5t-62.5 -293.5q2 -408 448 -414h8q164 0 421 90l-7 -231q-221 -61 -432 -62q-319 0 -508 140q-211 153 -211 444z" />
<glyph unicode="D" horiz-adv-x="1505" d="M174 1434q78 6 246 12q262 5 262 6h-4q492 0 622 -203q72 -115 72 -303q0 -2 -10 -237q-8 -129 -72 -275q-51 -115 -108 -182q-39 -49 -171 -116.5t-255 -102.5q-68 -20 -168 -27q-160 -8 -170 -10q-89 -9 -153 -9q-48 0 -81 5q-8 23 -8 108l2 1215q0 23 -4 119zM438 459 q2 -176 4 -252q133 2 230 29q84 23 186 79q88 49 109 74q127 162 141 336q14 203 14 223q-2 121 -45 185q-51 72 -170 86q-74 2 -184 10q-21 4 -78 3q-72 0 -201 -5q-6 -236 -6 -578v-190z" />
<glyph unicode="E" horiz-adv-x="1370" d="M92 498l6 225l113 -2v592q0 23 -4 121q150 4 237 4l799 -2l4 -230l-770 4q-6 -197 -6 -489q301 0 686 6l-4 -229h-682l4 -295l793 20l-4 -229l-820 2q-81 -10 -144 -10q-50 0 -89 6q-9 22 -9 57q0 12 1 25q5 89 6 88v-4v338z" />
<glyph unicode="F" d="M92 498l6 227q55 -4 111 -6q0 655 -2 715q147 4 242 4l794 -2l4 -230l-766 4q-10 -291 -10 -489h37q246 0 649 6l-4 -229h-682q4 -315 4 -465q0 -49 0 -41q-68 4 -117 4q-16 0 -47.5 -4t-48.5 -4q-14 0 -45 4l-6 506h-119z" />
<glyph unicode="G" horiz-adv-x="1517" d="M102 559q0 219 93 418q104 225 294 334q199 113 736 127l73 -215q-557 0 -675 -99q-98 -82 -165 -238q-65 -152 -65 -286q0 -422 461 -422q137 0 293 41l4 369h-299l37 215l526 24l-20 -768l-203 -47q-143 -35 -338 -35q-332 0 -530 138q-222 153 -222 444z" />
<glyph unicode="H" horiz-adv-x="1576" d="M92 504l6 223h103l2 586q0 23 -4 100q61 25 137 27q-14 0 -14 -1t153 -1q1 -32 1 -51t-1 -25q-12 -301 -12 -639l680 6q0 229 -17 633q-1 6 -1 25t1 51q153 0 153 1l-13 1q76 -2 137 -27q-2 -78 -2 -100q0 6 0 -416q2 -631 2 -797q0 -86 -10 -108q-22 -4 -46 -4 q-30 0 -65 6q3 0 3 -1q0 -2 -95 -1h-53l2 514l-674 -4q0 -59 6 -234q4 -147 4 -235q0 -49 0 -41q-68 4 -117 4q-16 0 -47.5 -4t-48.5 -4q-14 0 -45 4l-6 506z" />
<glyph unicode="I" horiz-adv-x="626" d="M174 -8v59q0 4 6 682q2 137 2 258q0 242 -8 422q69 27 148 27h12l117 -2l2 -76q-10 -442 -11 -1329v-41q-70 -4 -213 -4z" />
<glyph unicode="J" horiz-adv-x="1056" d="M123 -39l37 213q190 6 272 27q113 31 168 110q39 57 39 594q0 219 -6 516l260 17q10 -307 10 -584q0 -586 -53 -655q-96 -125 -290 -188q-162 -52 -358 -52q-39 0 -79 2z" />
<glyph unicode="K" horiz-adv-x="1427" d="M174 1413q61 25 137 27q-13 0 -13 -1t153 -1q2 -63 2 -74q-12 -285 -15 -586q88 59 137 103q129 113 510 583l238 -100q-162 -195 -502 -573l596 -709l-215 -152l-579 697q-102 -66 -187 -109q6 -401 6 -487q-2 -29 -2 -41q-71 4 -109 3q-25 0 -36 -1q-34 -6 -65 -6 q-24 0 -46 4q-8 23 -8 108l2 1217q0 22 -4 98z" />
<glyph unicode="L" horiz-adv-x="1286" d="M174 1413q61 25 137 27q-13 0 -13 -1t153 -1q2 -63 2 -76q-14 -342 -15 -713q0 -41 2 -192q2 -174 2 -254l793 20l-4 -229l-836 -2q-59 -7 -112 -7t-99 7q-8 23 -8 108l2 1213q0 22 -4 100z" />
<glyph unicode="M" horiz-adv-x="1865" d="M82 27q14 197 55 624q43 369 119 785l279 20q246 -545 397 -1020q160 496 399 1020l279 -20q72 -397 119 -785q18 -158 55 -624l-252 -56q-37 489 -98 1018q-4 34 -4 65q0 20 2 38l2 30q-2 0 -11 -32q-10 -51 -32 -109l-144 -383q-154 -414 -211 -602l-207 4 q-49 170 -211 598l-145 383q-20 57 -31 109q-8 33 -10 32q3 -9 3 -42t-3 -91q-61 -526 -98 -1018z" />
<glyph unicode="N" horiz-adv-x="1536" d="M133 -12q16 400 16 768q0 344 -14 659q70 23 152 25q-10 0 157 -4q438 -754 732 -1121q0 115 -7 547q-5 263 -4 455v121q143 2 142 2q70 -2 135 -27q-12 -302 -13 -632q0 -380 17 -795q-100 2 -293 16q-342 319 -752 1004q2 -338 2 -1014q-29 1 -62.5 1t-72.5 -1 q-88 -4 -135 -4z" />
<glyph unicode="O" horiz-adv-x="1603" d="M92 643q0 133 43 289q51 193 141.5 291t305.5 168q184 57 321 57q92 0 227 -53q162 -63 242 -156q59 -70 103 -199q37 -119 36 -198q0 -154 -47 -324q-57 -207 -159 -321q-92 -102 -273 -172q-166 -61 -307 -62q-109 0 -238 55q-139 61 -223 156q-76 86 -127 232 q-45 133 -45 237zM354 651q0 -57 31 -151q33 -109 81 -169.5t134 -99.5q78 -37 139 -36q63 0 164 32q109 33 160 76q94 80 145 252q37 131 37 256q0 51 -16 129q-20 86 -47 129q-39 63 -131 109q-80 41 -140 41q-88 0 -223 -43q-154 -49 -211 -113t-92 -199 q-31 -115 -31 -213z" />
<glyph unicode="P" horiz-adv-x="1380" d="M174 1430q389 27 574 26q76 0 102 -4q84 -12 168 -22q88 -16 156 -64q115 -84 114 -305q0 -137 -47 -264q-47 -135 -125 -201q-102 -88 -672 -209q1 -41 1 -92t-1 -113q-2 -145 -2 -149q0 -29 -2 -41q-71 4 -109 3q-25 0 -36 -1q-34 -6 -64 -6q-24 0 -45 4 q-10 23 -10 108l2 1215q0 23 -4 115zM438 621q414 94 480 129q49 27 79 116q27 80 27 170q0 113 -37 135q-47 29 -100 41l-107 25q-18 5 -88 5q-85 0 -248 -7q-7 -215 -7 -422q0 -83 1 -164v-28z" />
<glyph unicode="Q" horiz-adv-x="1638" d="M102 637q0 135 43 293q51 193 141.5 292t305.5 167q184 59 321 59q92 0 228 -53q162 -63 241 -158q59 -68 103 -201q37 -117 37 -196q0 -156 -45 -324q-57 -207 -158 -323l289 -279l-191 -162l-297 293q-190 -90 -385 -90q-109 0 -237 55q-139 61 -224 156 q-76 88 -127 233q-45 134 -45 238zM365 647q0 -59 30 -153q33 -109 81 -169.5t134 -101.5q78 -37 140 -37q63 0 163 33q109 35 160 78q94 80 146 252q37 133 36 258q0 53 -16 129q-20 88 -47 131q-39 63 -131 109q-80 41 -139 41q-88 0 -224 -43q-154 -49 -211 -113 t-92 -201q-30 -115 -30 -213z" />
<glyph unicode="R" horiz-adv-x="1380" d="M174 1430q391 27 574 26q76 0 104 -4q82 -12 166 -22q88 -16 156 -66q115 -82 114 -305q0 -135 -47 -266t-125 -199q-43 -37 -180 -82l319 -451l-231 -110l-344 487q-109 -27 -234 -53q0 -82 -2 -205q-2 -145 -2 -147q0 -31 -2 -43q-68 5 -105 4q-28 0 -40 -2 q-34 -6 -64 -6q-24 0 -45 4q-10 23 -10 108l2 1217q0 23 -4 115zM438 618q414 94 480 130q51 27 79 118q27 80 27 170q0 113 -37 135q-45 29 -98 41l-107 25q-19 5 -90 5q-86 0 -248 -7q-7 -241 -6 -471v-115v-31z" />
<glyph unicode="S" horiz-adv-x="1296" d="M61 193q143 -4 215 -5q403 0 611 93q80 37 80 129q-2 49 -105 86q-14 4 -313 77q-205 51 -303 121q-135 98 -135 271q0 125 110 243q92 96 185 127q324 104 651 105l78 -252q-152 2 -172 2q-575 0 -576 -225q0 -94 234 -152l251 -55q164 -43 250 -105q113 -82 113 -209 q0 -172 -129 -292q-209 -195 -746 -195q-104 0 -245 12z" />
<glyph unicode="T" horiz-adv-x="1359" d="M72 1214l37 226l567 -2l584 6l28 -232q-135 8 -471 21q-4 -106 -4 -592q0 -39 4 -303q1 -120 1 -196t-1 -109q0 -29 -2 -41q-70 4 -107 3q-25 0 -34 -1q-34 -6 -64 -6q-24 0 -45 4q-10 23 -10 106l2 1129z" />
<glyph unicode="U" horiz-adv-x="1456" d="M102 1415l275 51q-12 -282 -12 -516q0 -88 2 -170q6 -362 12 -424q14 -180 65 -180h2q104 8 613 152l-25 1104h271l8 -1416l-262 -45v113l-521 -137q-68 -16 -120 -17q-197 0 -260 260q-37 158 -38.5 643.5t-9.5 581.5z" />
<glyph unicode="V" horiz-adv-x="1581" d="M51 1403l277 51q195 -748 463 -1194q268 446 462 1194l277 -51q-209 -721 -586 -1409h-307q-377 688 -586 1409z" />
<glyph unicode="W" horiz-adv-x="2131" d="M51 1403l268 49q197 -754 472 -1206q68 113 139 262q-188 414 -328 895l268 49q92 -358 195 -625q109 289 197 625l268 -49q-135 -465 -330 -895q68 -139 141 -262q274 453 471 1206l269 -49q-209 -721 -588 -1409h-305l-123 235l-121 -235h-305q-379 688 -588 1409z" />
<glyph unicode="X" horiz-adv-x="1413" d="M51 80l266 291q137 154 230 274q-326 412 -496 739l260 66l123 -205q145 -240 258 -395q195 276 377 600l252 -88q-82 -156 -223 -363l-242 -352l506 -571l-166 -146q-143 143 -491 521q-274 -340 -500 -533z" />
<glyph unicode="Y" horiz-adv-x="1409" d="M51 1393l289 47q4 -45 14 -97q27 -127 84 -272q51 -125 168 -276q100 -131 115 -131q29 0 116 145t132 274q76 217 98 355l291 -39q-25 -74 -146 -400q-61 -162 -149 -286q-59 -86 -203 -244l-2 -465l-264 -10l-2 467q-291 268 -402 538q-96 232 -139 394z" />
<glyph unicode="Z" horiz-adv-x="1447" d="M102 180q74 78 240 229.5t244 235.5q168 186 428 559l-848 -4l43 223l1081 11l49 -189q-266 -375 -282 -395q-164 -225 -305 -383q-20 -25 -263 -242l857 -4l-56 -221h-1114z" />
<glyph unicode="[" horiz-adv-x="604" d="M102 1577q59 23 109 25h108l234 6l-10 -207l-189 -15q-8 -516 -8 -741q0 -78 4 -756h195v-221q-303 2 -322 -2q-61 -10 -110 -2q-8 23 -9 111l2 1702q0 22 -4 100z" />
<glyph unicode="\" horiz-adv-x="909" d="M-61 1440l41 -90l333 -717l310 -725q12 -25 36 -25q27 0 97 43l112 25q2 35 -37 121l-563 1259l-69 164q-63 -12 -129 -37q-45 -18 -131 -18z" />
<glyph unicode="]" horiz-adv-x="606" d="M51 1610l238 -8q55 -2 215 10l-4 -135v-658q2 -971 2 -1044q0 -88 -10 -111q-47 -8 -109 2q-20 4 -322 2v221h195q4 670 4 756q0 225 -10 741l-187 15z" />
<glyph unicode="^" horiz-adv-x="1148" d="M102 1251l387 305h193l365 -294l-97 -183l-370 275l-363 -271z" />
<glyph unicode="_" horiz-adv-x="1368" d="M102 10l1164 4l-13 -241h-1147z" />
<glyph unicode="`" horiz-adv-x="870" d="M119 1569l147 172l488 -258l-127 -168z" />
<glyph unicode="a" horiz-adv-x="1181" d="M82 307q0 98 59 195q66 106 174 149q98 39 461 101q-8 184 -45 184h-2q-117 -16 -172 -27q-98 -20 -367 -108l-75 200q250 98 444 129l123 19q47 6 86 6q186 0 240 -213q29 -119 28.5 -491.5t12.5 -442.5l-267 -51v61q-168 -43 -274 -43q-313 0 -375 48q-51 38 -51 284z M330 270q0 -66 20 -82q8 -6 39 -8q20 0 58 3t45 3q111 0 296 52q2 77 2.5 150.5t-2.5 143.5q-164 -14 -241 -30q-168 -37 -197 -99q-20 -49 -20 -133z" />
<glyph unicode="b" horiz-adv-x="1275" d="M154 100q0 217 6 488q6 258 6 377q0 141 -4 307v123q113 43 274 43q2 -66 2 -76q-10 -145 -12 -279q199 78 268 82q24 2 49 2q105 0 220 -28q141 -35 155 -76q55 -162 56 -365q0 -145 -27 -278q-23 -115 -49 -148q-172 -229 -707 -276q-16 1 -41 1t-59 -1q-43 -7 -80 -7 q-24 0 -45 3q-12 26 -12 108zM426 221q336 39 442 166q18 18 37 105q23 102 23 204q0 131 -39 228q-8 23 -70 24h-114q-35 0 -279 -94v-217q2 -139 2 -217q0 -72 -2 -199z" />
<glyph unicode="c" horiz-adv-x="1114" d="M72 451q0 172 67 327q80 180 226.5 267.5t574.5 101.5l72 -221q-61 2 -116 1q-326 0 -396 -63q-66 -57 -111 -173t-45 -216q2 -281 311 -285h7q130 0 350 82l-6 -239q-182 -53 -359 -53q-252 0 -405 110q-170 125 -170 361z" />
<glyph unicode="d" horiz-adv-x="1288" d="M102 463q0 143 27 276q23 115 49 150q164 219 678 272l-6 236q109 39 261 39h15v-76q-5 -130 -5 -296q0 -83 1 -175l13 -471q-1 -69 -1 -165.5t1 -221.5q0 -43 -48 -43q-18 0 -55 7t-45 7q-63 -9 -92 -9q-10 0 -16 1q-14 31 -13 72v14q-215 -82 -284 -86q-24 -2 -49 -2 q-105 0 -220 28q-141 35 -155 78q-56 162 -56 365zM348 463q0 -131 39 -227q8 -23 70 -25q57 2 114 2q31 0 293 96v631q-352 -43 -456 -166q-18 -20 -37 -106q-23 -103 -23 -205z" />
<glyph unicode="e" horiz-adv-x="1204" d="M72 518q0 137 32 264q45 172 134 242q49 37 185 79t230 44h7q78 0 190 -45q102 -39 149 -80q33 -29 81 -154t53 -194q1 -18 0 -38q0 -69 -11 -157l-776 -96q33 -121 80 -152q37 -25 184 -36q12 0 30.5 -2.5t23.5 -2.5q137 0 356 82l-6 -239q-195 -57 -359 -58h-71 q-96 0 -195 23q-113 29 -166 76q-66 59 -110 209q-41 133 -41 235zM334 592l557 74q-10 96 -68 178q-14 20 -71 48q-53 26 -86 26h-4q-68 -4 -154 -30t-115 -52q-36 -33 -59 -244z" />
<glyph unicode="f" horiz-adv-x="849" d="M76 938l6 205h156q16 152 90 205q49 37 229 69q109 20 203 21q61 0 131 -11l-74 -184q-197 -10 -317 -47q-8 -2 -8 -53h276l-18 -209l-273 2q-2 -78 -2 -174q0 -324 25 -776l-281 -4q11 67 11 287q0 63 -1 139q-3 257 -2 406v122z" />
<glyph unicode="g" horiz-adv-x="1361" d="M31 -223l157 188q206 -170 439 -170h16q102 2 191 25q115 29 115 75q0 20 -29 55q-27 32 -43 40q-68 35 -453 39q-143 2 -143 90q0 20 32 92l56 131q-233 117 -234 346q0 268 174 375q135 82 428 82q123 0 219 -45q80 76 186 76h11l178 -172q-174 -23 -213 -58 q37 -68 39 -149q1 -14 1 -28q0 -200 -114 -325q-139 -158 -432 -157h-8l-16 -39q342 -16 430 -55q59 -27 117 -101q68 -90 67 -174q0 -144 -207 -244q-172 -84 -332 -84h-8q-180 2 -293 29q-184 43 -331 158zM383 692q0 -80 69 -139q66 -57 162 -57h7q184 6 245 90 q43 55 43 192q0 162 -166 162q-182 0 -256 -37q-104 -53 -104 -211z" />
<glyph unicode="h" horiz-adv-x="1294" d="M154 1405l256 39v-379q258 59 397 96q53 14 98 15q172 0 225 -222q29 -121 29 -497.5t12 -448.5l-268 -53q9 237 9 423q0 62 -1 120q-4 236 -10 311q-14 137 -49 137h-2q-66 -4 -447 -106l19 -840h-262z" />
<glyph unicode="i" horiz-adv-x="608" d="M154 1335v138l133 24h151l17 -229l-136 -39l-141 8zM166 47q-1 58 -1 106t1 85q4 106 4 280t-4 416q-1 32 -1 75.5t1 98.5q56 -5 103 -5q106 0 165 25q1 -47 1 -111.5t-1 -146.5q-2 -166 -2 -258l8 -438q0 -63 4 -190q-55 10 -96 10q-84 0 -180 -47z" />
<glyph unicode="j" horiz-adv-x="634" d="M-193 -301q141 74 210 125t141 141q57 76 57 678q0 242 -8 465l260 16q12 -266 12 -524q0 -635 -76 -731q-94 -123 -178 -193q-90 -78 -239 -157zM180 1333v140l135 24h150l16 -231l-133 -39l-141 8z" />
<glyph unicode="k" horiz-adv-x="1185" d="M133 41q0 135 3 406.5t3 406.5q0 76 -3 226.5t-3 226.5v88q113 43 275 43v-74q0 -23 -19 -700q129 90 260 227q61 63 230 260l229 -96q-125 -147 -395 -434l442 -588l-217 -152l-422 582l-131 -86q2 -43 8 -160q6 -100 6 -160q0 -4 2 -80q-111 12 -139 13q-23 -4 -121 -8 q-8 36 -8 59z" />
<glyph unicode="l" horiz-adv-x="583" d="M154 1272v123q111 43 274 43q2 -63 2 -76q-5 -91 -5 -386q0 -221 3 -556q1 -35 1 -94q0 -118 -3 -334q-83 12 -124 12q-15 0 -23 -2q-65 -11 -95 -11q-8 0 -14 1q-13 25 -13 61q0 5 1 10q1 339 1 587q0 495 -5 622z" />
<glyph unicode="m" horiz-adv-x="2029" d="M154 1092l256 43v-84l397 96q53 12 98 12q131 0 191 -119l436 107q53 12 100 12q180 0 234 -215q29 -121 28.5 -493.5t12.5 -442.5l-279 -51q9 232 9 417q0 62 -1 118q-4 233 -10 307q-14 137 -50 137h-1q-74 -8 -428 -109q12 -135 12 -436q0 -313 12 -383l-268 -51 q9 232 9 417q0 62 -1 118q-4 233 -10 307q-14 137 -50 137h-1q-66 -6 -447 -107l21 -829h-264z" />
<glyph unicode="n" horiz-adv-x="1294" d="M154 1092l256 43v-84l397 96q53 12 98 12q172 0 225 -215q29 -121 29 -493.5t12 -442.5l-268 -51q9 232 9 417q0 62 -1 118q-4 233 -10 307q-14 137 -50 137h-1q-66 -6 -447 -107l21 -829h-264z" />
<glyph unicode="o" d="M72 518q0 111 64.5 274.5t129 216t180.5 91.5q139 47 281 47q106 0 221 -53q106 -49 166 -117q109 -125 113 -303v-19q0 -126 -49 -276q-51 -154 -109 -207q-72 -66 -199 -127q-156 -74 -280 -74q-98 0 -228.5 66.5t-172.5 131t-76 165.5q-41 112 -41 184zM334 526 q0 -104 80 -229q20 -31 78 -64q54 -31 100 -30h6q88 4 174 47q68 35 99.5 70.5t61.5 138t30 188.5q0 119 -66 195t-164 76q-190 0 -295 -95q-39 -33 -69 -114q-35 -93 -35 -183z" />
<glyph unicode="p" horiz-adv-x="1296" d="M154 1100q109 45 268 45l-2 -86q223 94 348 94q287 0 367 -111q59 -82 59 -362q0 -383 -190 -539q-166 -137 -582 -166l-2 -376q-104 -8 -258 -54q3 121 3 334q0 426 -11 1221zM412 715q0 -86 8 -516q297 25 403 110q125 102 125 371q0 172 -28 209q-35 43 -195 43 q-39 0 -311 -107z" />
<glyph unicode="q" horiz-adv-x="1366" d="M102 649q0 51 4 99q4 59 66 239q18 59 186 117q141 48 248 48q16 0 31 -1q72 -4 287 -92l2 74l260 -17l-29 -1218q-4 -121 168 -197l-180 -180q-248 133 -244 329l2 170q-188 -53 -356 -53q-252 0 -350 129q-29 39 -60 197q-35 180 -35 356zM360 692q-2 -34 -1 -68 q0 -113 20 -239q23 -141 41 -164q49 -57 164 -57q139 0 325 76l13 591q-255 98 -294 99h-1q-61 0 -138 -30t-83 -46q-42 -105 -46 -162z" />
<glyph unicode="r" horiz-adv-x="927" d="M154 1092l264 41v-64q102 49 225 78q9 2 23 2q64 0 221 -41l-94 -246q-90 72 -113 72h-12q-103 0 -256 -96l6 -836h-258z" />
<glyph unicode="s" horiz-adv-x="1083" d="M61 184q111 -10 230 -10q473 0 473 162q0 18 -74 43l-244 65q-156 45 -233 105q-104 80 -104 211q0 111 110 213q96 90 199 117q188 49 461 57l82 -232q-96 8 -189 9q-393 0 -393 -158q0 -51 168 -100q254 -76 309 -103q166 -78 166 -201q0 -80 -61.5 -174t-153.5 -137 q-174 -82 -492 -82q-106 0 -198 8z" />
<glyph unicode="t" horiz-adv-x="911" d="M82 936l6 205h174l4 237l254 35l-2 -272h285l-4 -209h-281l-2 -547v-31q0 -65 7 -88q9 -29 44 -61q55 -53 262 -103l-151 -198q-76 33 -137 63q-145 74 -193 125q-61 70 -79 126q-16 50 -15 146v23l6 547z" />
<glyph unicode="u" horiz-adv-x="1273" d="M102 1098l269 51q-9 -232 -10 -417q0 -62 1 -118q4 -233 11 -307q14 -137 50 -137h1q66 6 444 106l-18 830h264l6 -1092l-256 -43v84l-397 -96q-55 -12 -98 -12q-172 0 -226 215q-29 121 -29 493.5t-12 442.5z" />
<glyph unicode="v" horiz-adv-x="1361" d="M61 1100l269 45l63 -217q76 -244 137 -371q2 -4 70 -162q41 -98 82 -157q39 59 80 157q68 158 69 162q92 190 201 588l268 -45l-77 -228q-90 -256 -154 -391q-86 -178 -256 -485h-264q-82 147 -256 485q-97 201 -232 619z" />
<glyph unicode="w" horiz-adv-x="1867" d="M31 1100l268 45q29 -117 57 -217q68 -242 123 -373q70 -170 154 -315q139 178 219 352q-76 197 -166 508l268 45q29 -117 58 -217q68 -242 123 -373q70 -166 147 -303q184 342 283 891l272 -35q-29 -123 -57 -229q-68 -258 -123 -396q-96 -238 -244 -481l-260 -6 q-49 84 -182 330q-84 -145 -215 -324l-258 -6q-88 150 -258 485q-88 205 -209 619z" />
<glyph unicode="x" horiz-adv-x="1265" d="M72 82q223 199 413 426l-401 528l246 115l305 -455q137 184 305 449l236 -82q-158 -279 -383 -561l401 -430l-193 -138l-356 390q-236 -270 -424 -396z" />
<glyph unicode="y" horiz-adv-x="1259" d="M61 1083l269 54q100 -512 170 -645q53 -98 190 -254q109 211 160 424q49 195 72 479l276 -39q-51 -352 -123 -574q-76 -236 -231 -514q-133 -238 -336 -479l-227 129q188 207 278 348q-205 227 -283 348q-90 143 -215 723z" />
<glyph unicode="z" horiz-adv-x="1206" d="M82 168q102 88 315 287q227 236 375 463l-637 -5l47 217l883 9l47 -170q-317 -461 -612 -750l624 -4l-59 -215h-907z" />
<glyph unicode="{" horiz-adv-x="831" d="M72 606q111 100 143 178q23 49 25 150q4 123 24 215q2 51 4 137q6 139 41 225q45 111 439 127l-11 -170q-176 2 -205 -65q-27 -59 -26 -246q0 -45 -6 -65q-18 -76 -19.5 -178.5t-13.5 -147.5q-25 -78 -107 -162q84 -80 109 -158q14 -45 14 -145q0 -106 21 -182 q4 -20 4 -66q0 -186 27 -246q20 -47 77 -47q43 0 189 39l-49 -227q-115 4 -203 18q-207 35 -238 109q-39 98 -41 315q0 18 -2 47q-23 92 -26 218q-2 98 -25 149q-32 76 -145 178z" />
<glyph unicode="|" horiz-adv-x="585" d="M164 1454q61 25 127 27q-51 -2 129 -2q2 -63 2 -76q-14 -344 -14 -756q0 -16 2 -348q2 -281 2 -350l-2 8q4 -12 -9 -27q-12 -20 -43 -20q-25 2 -73 2q-61 -10 -111 -2q-8 23 -8 108l2 1336q0 22 -4 100z" />
<glyph unicode="}" horiz-adv-x="831" d="M31 -201q145 -39 188 -39q57 0 78 47q27 59 27 246q0 45 6 66q18 76 18 182q2 100 17 145q23 78 106 158q-82 84 -104 162q-14 45 -15.5 147.5t-19.5 178.5q-6 20 -6 65q0 186 -27 246q-29 68 -205 65l-10 170q115 -4 201 -18q207 -35 237 -109q39 -96 43 -315 q0 -18 2 -47q23 -92 25 -215q4 -100 24 -150q33 -78 144 -178q-147 -135 -154 -196q-23 -268 -41 -349q-2 -51 -4 -137q-6 -139 -41 -225q-45 -111 -438 -127z" />
<glyph unicode="~" horiz-adv-x="1552" d="M92 1217q332 219 475 219q68 0 240 -106.5t199 -106.5q70 0 307 233l147 -178q-317 -266 -446 -266q-74 0 -246 104.5t-219 102.5q-109 -4 -330 -191z" />
<glyph unicode="&#xa1;" horiz-adv-x="534" d="M133 1049l135 36l140 -8l26 -116v-136l-133 -22h-151zM145 -367l23 732l-4 311h260l-6 -324l24 -702z" />
<glyph unicode="&#xa2;" horiz-adv-x="1144" d="M123 592q0 174 67 332q80 182 226 270q61 37 170 61l4 142l221 -2l-4 -107q82 6 184 8l72 -225q-154 4 -262 -2l-21 -737q102 12 283 80l-6 -242q-147 -43 -285 -51l-4 -131l-217 6l4 129q-195 33 -307 145q-125 123 -125 324zM395 616q0 -211 164 -266l21 676 q-18 -6 -29 -16q-66 -57 -111 -174.5t-45 -219.5z" />
<glyph unicode="&#xa3;" horiz-adv-x="1220" d="M102 838h136q2 20 2 49q0 23 -2 74t-2 75q0 147 61 205q104 98 383 98q61 0 154 -4q117 -6 131 -8l39 -215q-254 8 -256 8q-213 0 -246 -35q-45 -47 -27 -245l539 2l16 -209h-551l4 -408q207 -14 326 -12q94 0 299 12l10 -215q-104 -6 -313 -12q-156 -4 -412 8l-258 -43 l-20 219q129 0 135 23q4 12 -2 43l-8 385h-134z" />
<glyph unicode="&#xa4;" horiz-adv-x="1288" d="M102 520l154 -2q4 37 10 74h-137l-2 207h205q76 166 211 245q145 88 561 103l65 -205q-420 12 -505 -65q-31 -29 -62 -74h584l-2 -211h-668q-6 -31 -8 -70l670 2l-2 -211h-633q70 -137 284 -139q133 -2 344 78l-4 -219q-174 -53 -348 -53q-207 0 -348 77 q-154 86 -201 252l-166 6z" />
<glyph unicode="&#xa5;" horiz-adv-x="1406" d="M51 1393l281 45q2 -43 12 -95q27 -125 86 -272q51 -127 170 -278q102 -133 121 -134q31 -2 120 146.5t134 279.5q78 217 98 351l283 -37q-25 -72 -146 -395q-59 -160 -145 -285q-61 -86 -201 -240l338 2l-2 -229l-346 -4l-2 -246l-256 -8v252l-348 6l-2 225l332 2 q-279 258 -388 525q-98 233 -139 389z" />
<glyph unicode="&#xa6;" horiz-adv-x="626" d="M195 623q74 12 129 12h51h78q2 -51 0 -57q-12 -156 -13 -320q0 -10 2 -149q2 -123 2 -160q8 -45 -53 -45q-94 0 -78 2q-57 -4 -96 -2q-18 20 -18 71l2 582q0 11 -6 66zM195 1462q70 14 258 15q2 -53 0 -60q-12 -172 -13 -377q0 -14 2 -139q2 -106 2 -145q8 -43 -53 -43 q-94 0 -78 0q-57 -4 -96 -2q-18 23 -18 75l2 609q0 10 -6 67z" />
<glyph unicode="&#xa7;" horiz-adv-x="1165" d="M102 188q125 -12 226 -12q262 0 438 78q39 18 39 47q0 16 -70 31l-243 37q-158 27 -236 80q-106 72 -106 204q0 113 116 199q-117 74 -116 209q0 111 112 209q92 78 197 106q188 49 461 58l81 -236q-102 10 -186 10q-174 0 -278 -37q-68 -23 -92.5 -43t-24.5 -61t59 -63 q23 -8 133 -33q229 -53 285 -76q166 -70 166 -199q0 -106 -109 -204q109 -57 109 -164q0 -78 -61.5 -155t-153.5 -120q-174 -84 -492 -84q-106 0 -198 8zM420 659q0 -39 67 -65q59 -20 127 -21q37 0 58 9q86 31 121 55q12 8 12 35q2 45 -68 63q-18 4 -159 23 q-6 2 -66.5 -20.5t-69.5 -26.5q-22 -15 -22 -52z" />
<glyph unicode="&#xa8;" horiz-adv-x="915" d="M102 1559v127l121 22h137l15 -229l-121 -37l-129 8zM539 1479l123 -37l126 8l25 109v127l-121 22h-137z" />
<glyph unicode="&#xa9;" horiz-adv-x="1406" d="M102 721q0 129 53.5 256t131.5 200.5t248 129.5q154 49 245 45q76 -2 187.5 -52.5t175.5 -117.5q123 -125 155 -297q6 -35 7 -76q0 -236 -140 -403q-84 -100 -239 -168q-141 -63 -254 -64q-231 0 -406 178q-70 72 -117 178.5t-47 190.5zM287 729q6 -61 37 -137 q35 -86 82 -133q117 -121 282 -121q86 0 186.5 50t157.5 126q45 57 70 166q25 96 18 154q-14 113 -96 215q-41 51 -114.5 93t-123.5 48q-76 6 -201.5 -37t-172.5 -98q-139 -156 -125 -326zM406 717q0 94 36 182q43 100 123 150q55 33 162 32q23 0 72 -2q41 -4 63 -2l62 -123 q-238 0 -269.5 -27.5t-55.5 -87t-24 -108.5q2 -139 152 -141q59 0 201 49l-4 -158q-113 -31 -201 -30q-137 0 -223 61q-94 72 -94 205z" />
<glyph unicode="&#xaa;" horiz-adv-x="696" d="M102 1026q0 51 29 100q35 57 92 82q43 16 195 45q0 29 -4 39q0 2 -19 2q-16 -4 -47 -10q-43 -10 -186 -57l-51 135q70 29 229 70l22 4l33 6q23 2 41 2q106 0 135 -117q12 -59 13 -233v-54v-53q0 -59 10 -119l-174 -34v26q-57 -12 -101 -12q-150 0 -183.5 25.5 t-33.5 152.5zM264 987q-2 2 17 4q41 0 32 0q41 0 111 19q0 47 -2 96q-137 -16 -150 -45q-26 -58 -8 -74z" />
<glyph unicode="&#xab;" horiz-adv-x="1247" d="M102 578l512 440l127 -154l-403 -352l418 -338l-146 -143l-499 397zM573 578l512 440l127 -154l-403 -352l418 -338l-146 -143l-499 397z" />
<glyph unicode="&#xac;" horiz-adv-x="1533" d="M102 723l1330 2l-13 -600l-227 18l-6 344l-1071 -6z" />
<glyph unicode="&#xad;" horiz-adv-x="897" d="M72 522l753 4l-4 -241h-745z" />
<glyph unicode="&#xae;" horiz-adv-x="1406" d="M102 721q0 129 53.5 256t131.5 200.5t248 129.5q154 49 245 45q76 -2 187.5 -52.5t175.5 -117.5q123 -125 155 -297q6 -35 7 -76q0 -236 -140 -403q-84 -100 -239 -168q-141 -63 -254 -64q-231 0 -406 178q-70 72 -117 178.5t-47 190.5zM287 729q6 -61 37 -137 q35 -86 82 -133q117 -121 282 -121q86 0 186.5 50t157.5 126q45 57 70 166q25 96 18 154q-14 113 -96 215q-41 51 -114.5 93t-123.5 48q-76 6 -201.5 -37t-172.5 -98q-139 -156 -125 -326zM506 518q2 14 2 455q0 8 -2 69q240 16 276 11q31 -6 65 -11.5t60 -27.5 q53 -39 54 -135q0 -133 -70 -197q-14 -12 -41 -25l111 -165l-134 -68l-125 188q-23 -6 -43 -10v-76v-55q0 -20 -16 -25h-33q-53 0 -49 0q-18 0 -43 5q-14 30 -12 67zM657 748q113 29 127 36q31 16 25 113q-16 10 -50 16.5t-100 1.5q-2 -71 -2 -167z" />
<glyph unicode="&#xaf;" horiz-adv-x="888" d="M61 1638l766 4l-2 -176h-759z" />
<glyph unicode="&#xb0;" horiz-adv-x="790" d="M102 1174q0 53 32 128.5t69 102.5q86 63 229 63q121 0 197 -79q57 -61 59 -148q2 -61 -24.5 -134t-59.5 -101.5t-96 -57.5q-78 -33 -141 -33q-51 0 -117 31t-88 64q-60 86 -60 164zM274 1178q0 -37 33 -84q20 -33 64 -31q72 2 108.5 41t36.5 125q0 92 -82 92 q-80 0 -120 -32.5t-40 -110.5z" />
<glyph unicode="&#xb1;" horiz-adv-x="1095" d="M102 -43l7 197l884 4l-4 -201h-887zM186 651l244 2l4 211l262 -2v-215l242 10l-2 -215h-240v-206l-258 4l-2 202h-248z" />
<glyph unicode="&#xb2;" horiz-adv-x="907" d="M102 899l390 270q55 37 49 131q-18 2 -37 7q-37 18 -164 -9q-33 -6 -113 -122l-125 208q57 41 195 111q41 12 176 12q131 -2 168 -12q113 -31 125 -219q4 -84 -47 -178q-25 -43 -180 -146l266 -2l-57 -200h-574z" />
<glyph unicode="&#xb3;" horiz-adv-x="921" d="M102 645q86 16 234 88q121 61 168 98q80 61 80 89q0 41 -80 41q-59 0 -129 -19q-14 -4 -29 -4q-43 0 -74.5 27.5t-31.5 64.5q0 23 188 262h-272l32 207h574l43 -100l-209 -254q223 -33 223 -215q0 -63 -82 -160l-94 -100q-29 -29 -202 -119t-228 -107z" />
<glyph unicode="&#xb4;" horiz-adv-x="870" d="M119 1483l485 258l148 -172l-508 -254z" />
<glyph unicode="&#xb5;" horiz-adv-x="1331" d="M154 1100q109 45 266 45q0 -90 -4 -229.5t-4 -198.5q0 -41 8 -479q47 -29 117 -29q248 0 335 149q61 106 58 347q0 41 -4 137q-4 86 -4 131q0 51 10 139q147 -4 262 43q2 -162 -6 -393q-8 -262 -8 -346v-152q0 -90 90 -137l112 -45l-180 -170l-145 89q-72 46 -96 124 q-240 -147 -443 -148q-53 0 -96 15l-2 -252q-102 -6 -258 -49q4 520 -8 1409z" />
<glyph unicode="&#xb6;" horiz-adv-x="1269" d="M102 1120q0 193 103 248q55 29 157 49q119 23 152 33q16 8 98 8q172 0 543 -24q12 -39 12 -52q-14 -354 -14 -737q0 -109 4 -797h-33q-113 0 -96 2q-57 -10 -92 -4q-4 10 -4 95v1316l-90 7q-6 -178 -6 -619q0 -109 4 -797h-35q-111 0 -94 2q-59 -10 -93 -4q-4 10 -4 95 q0 86 2 268q2 205 2 258q-256 51 -358 158q-61 66 -109.5 213t-48.5 282z" />
<glyph unicode="&#xb8;" horiz-adv-x="757" d="M102 -410l52 158q84 -29 206 -16q33 2 58 32q18 23 12 25q-88 33 -225 10l8 277h209l-6 -127q57 -6 121 -29q78 -29 98 -59.5t20 -67.5q0 -80 -57 -137q-90 -90 -209 -98q-103 -7 -287 32z" />
<glyph unicode="&#xb9;" horiz-adv-x="464" d="M102 694v121q0 72 6.5 218.5t6.5 219.5v33q-2 27 -2 51q0 35 -11 138q45 2 88 6q102 10 172 37v-111q0 -47 -4 -135t-4 -133v-252q0 -123 2 -156q-57 10 -90 10q-60 0 -164 -47z" />
<glyph unicode="&#xba;" horiz-adv-x="831" d="M102 1114q0 51 33 140t68 114q113 80 250 80q53 0 122 -33q61 -31 95 -61q20 -20 38.5 -77.5t20.5 -98.5q2 -59 -24.5 -146.5t-58.5 -113t-107 -54.5q-86 -31 -152 -30q-51 0 -127 29.5t-97.5 57t-41 93t-19.5 100.5zM274 1118q0 -20 12.5 -64t18.5 -52.5t37 -19.5t49 -9 q37 0 82 16q39 14 48 23.5t22.5 63.5t13.5 91q0 72 -18 95q-10 12 -39 30.5t-45 18.5q-76 0 -142 -51q-10 -8 -24.5 -57.5t-14.5 -84.5z" />
<glyph unicode="&#xbb;" horiz-adv-x="1247" d="M20 174l146 -143l500 397l8 150l-512 440l-127 -154l401 -352zM492 174l145 -143l500 397l8 150l-512 440l-127 -154l401 -352z" />
<glyph unicode="&#xbc;" horiz-adv-x="1540" d="M102 633v127q0 76 6.5 229.5t6.5 231.5v34q-2 29 -2 54q0 37 -11 145q45 2 88 6q102 10 172 39v-117q0 -49 -4 -141t-4 -141v-264q0 -129 2 -164q-57 10 -90 10q-60 0 -164 -49zM111 -51q0 37 36 123l564 1259l69 164q63 -12 129 -37q45 -18 131 -18l-41 -90l-333 -719 l-310 -723q-12 -25 -37 -25q-27 0 -96 43q-75 17 -112 23zM635 270l239 559l228 -81l-176 -408h198l2 569l242 39l2 -606l109 -2l-29 -219h-82l2 -250h-246v246h-407z" />
<glyph unicode="&#xbd;" horiz-adv-x="1564" d="M102 651v127q0 76 6.5 230.5t6.5 232.5v35q-2 29 -2 53q0 37 -11 146q45 0 88 6q102 10 172 39v-117q0 -49 -4 -142.5t-4 -142.5v-262q0 -129 2 -164q-57 10 -90 10q-60 0 -164 -51zM131 -49q0 35 37 121l563 1259l70 164q63 -10 129 -37q45 -18 131 -18l-41 -90 l-334 -717l-309 -725q-12 -25 -37 -25q-27 0 -96 43zM760 86l389 285q57 41 49 139q0 2 -16.5 8t-83.5 2q-61 -4 -97 -12t-116 -131l-123 223l65 47q78 49 129 68q39 14 174 12q131 0 168 -10q113 -33 125 -232q4 -90 -47 -190q-23 -45 -178 -152l264 -2l-57 -213h-574z" />
<glyph unicode="&#xbe;" horiz-adv-x="1937" d="M102 623q86 16 234 92q121 61 168 98q80 63 80 92q0 41 -80 41q-59 0 -129 -18q-14 -4 -29 -4q-43 0 -74.5 28.5t-31.5 65.5q0 25 188 270h-272l32 211h574l43 -102l-209 -262q223 -33 223 -220q0 -66 -82 -163q-18 -23 -94 -105q-29 -29 -202 -122t-228 -109zM485 -51 q0 37 39 123l563 1259l68 164q66 -10 131 -37q45 -18 129 -18l-39 -90l-334 -719l-311 -723q-10 -25 -37 -25q-25 0 -94 43q-76 17 -115 23zM991 272l240 557l227 -81l-176 -408h199l2 569l241 39v-606l111 -2l-29 -219h-82l2 -250h-247l2 246h-408z" />
<glyph unicode="&#xbf;" horiz-adv-x="1163" d="M92 -18q-4 55 35 213q41 172 76 200q27 18 180.5 63.5t155.5 47.5q12 14 -9 188l267 39q14 -150 14 -252q0 -104 -16 -123q-29 -37 -193 -77q-170 -45 -186.5 -57.5t-40 -97.5t-19.5 -120q4 -33 22.5 -82t41.5 -63q16 -12 139 -11q123 2 168 17q72 18 248 82l106 -199 q-102 -45 -323 -115q-96 -20 -228 -20q-201 0 -272 29q-39 14 -99.5 135t-66.5 203zM494 1055l135 37l141 -9l25 -116v-136l-133 -22h-150z" />
<glyph unicode="&#xc0;" horiz-adv-x="1556" d="M479 1706l147 172l488 -258l-127 -168zM82 16q27 135 86 312q-16 2 -72 6l6 221h138q63 182 186 432l219 436l279 15l225 -461q131 -274 194 -475l76 -226q43 -139 68 -260l-277 -43q-29 172 -77 357l-697 2q-47 -186 -76 -359zM512 559q221 -5 418 -5q66 0 129 1 q-82 203 -123 293q-78 174 -150 297q-145 -248 -274 -586z" />
<glyph unicode="&#xc1;" horiz-adv-x="1556" d="M469 1639l485 258l148 -172l-508 -254zM82 16q27 135 86 312q-16 2 -72 6l6 221h138q63 182 186 432l219 436l279 15l225 -461q131 -274 194 -475l76 -226q43 -139 68 -260l-277 -43q-29 172 -77 357l-697 2q-47 -186 -76 -359zM512 559q221 -5 418 -5q66 0 129 1 q-82 203 -123 293q-78 174 -150 297q-145 -248 -274 -586z" />
<glyph unicode="&#xc2;" horiz-adv-x="1556" d="M387 1593l347 234l126 -2l322 -219l-129 -154l-258 188l-266 -186zM82 16q27 135 86 312q-16 2 -72 6l6 221h138q63 182 186 432l219 436l279 15l225 -461q131 -274 194 -475l76 -226q43 -139 68 -260l-277 -43q-29 172 -77 357l-697 2q-47 -186 -76 -359zM512 559 q221 -5 418 -5q66 0 129 1q-82 203 -123 293q-78 174 -150 297q-145 -248 -274 -586z" />
<glyph unicode="&#xc3;" horiz-adv-x="1556" d="M358 1685q188 141 293 142q49 0 148.5 -71t118.5 -71q61 0 178 170l102 -192q-180 -197 -274 -197q-51 0 -151.5 67.5t-131.5 65.5q-51 -4 -113 -55q-51 -41 -82 -88zM82 16q27 135 86 312q-16 2 -72 6l6 221h138q63 182 186 432l219 436l279 15l225 -461 q131 -274 194 -475l76 -226q43 -139 68 -260l-277 -43q-29 172 -77 357l-697 2q-47 -186 -76 -359zM512 559q221 -5 418 -5q66 0 129 1q-82 203 -123 293q-78 174 -150 297q-145 -248 -274 -586z" />
<glyph unicode="&#xc4;" horiz-adv-x="1556" d="M82 16q27 135 86 312q-16 2 -72 6l6 221h138q63 182 186 432l219 436l279 15l225 -461q131 -274 194 -475l76 -226q43 -139 68 -260l-277 -43q-29 172 -77 357l-697 2q-47 -186 -76 -359zM512 559q221 -5 418 -5q66 0 129 1q-82 203 -123 293q-78 174 -150 297 q-145 -248 -274 -586zM428 1649v127l121 22h137l15 -229l-121 -37l-129 8zM865 1569l123 -37l126 8l25 109v127l-121 22h-137z" />
<glyph unicode="&#xc5;" horiz-adv-x="1556" d="M887 1363q-78 -35 -145 -34q-53 0 -121 31.5t-92 66.5q-61 88 -62 170q0 55 33 133t72 107q88 66 235 65q125 0 205 -84q59 -63 62 -153q2 -63 -25 -138t-63 -105t-99 -59zM809 1734q-76 0 -112.5 -30.5t-36.5 -102.5q0 -35 31 -78q18 -29 55 -26q66 2 100.5 37.5 t34.5 117.5t-72 82zM82 16q27 135 86 312q-16 2 -72 6l6 221h138q63 182 186 432l219 436l279 15l225 -461q131 -274 194 -475l76 -226q43 -139 68 -260l-277 -43q-29 172 -77 357l-697 2q-47 -186 -76 -359zM512 559q221 -5 418 -5q66 0 129 1q-82 203 -123 293 q-78 174 -150 297q-145 -248 -274 -586z" />
<glyph unicode="&#xc6;" horiz-adv-x="2183" d="M82 16q57 139 156 314q-12 0 -68 6l57 219h135q104 184 285 434l318 432l106 15q41 0 98 2h88l801 -2l2 -230l-768 4q-6 -201 -6 -489q301 0 684 6l-2 -229h-682l2 -295l793 20l-2 -229l-822 2q-143 -18 -231 -4q-12 27 -10 82q6 109 6 84v168q-233 6 -508 6 q-96 -195 -160 -359zM645 557q291 -4 379 -4q0 57 2 289v260q-176 -234 -381 -545z" />
<glyph unicode="&#xc7;" horiz-adv-x="1361" d="M573 -410l52 158q84 -29 206 -16q33 2 58 32q18 23 12 25q-88 33 -225 10l8 277h209l-6 -127q57 -6 121 -29q78 -29 98 -59.5t20 -67.5q0 -80 -57 -137q-90 -90 -209 -98q-103 -7 -287 32zM102 557q0 219 88 418q100 227 281 334q190 115 707 129l69 -215 q-532 0 -643 -99q-96 -84 -158.5 -240.5t-62.5 -293.5q2 -408 448 -414h8q164 0 421 90l-7 -231q-221 -61 -432 -62q-319 0 -508 140q-211 153 -211 444z" />
<glyph unicode="&#xc8;" horiz-adv-x="1370" d="M438 1706l147 172l488 -258l-127 -168zM92 498l6 225l113 -2v592q0 23 -4 121q150 4 237 4l799 -2l4 -230l-770 4q-6 -197 -6 -489q301 0 686 6l-4 -229h-682l4 -295l793 20l-4 -229l-820 2q-81 -10 -144 -10q-50 0 -89 6q-9 22 -9 57q0 12 1 25q5 89 6 88v-4v338z" />
<glyph unicode="&#xc9;" horiz-adv-x="1370" d="M428 1639l485 258l148 -172l-508 -254zM92 498l6 225l113 -2v592q0 23 -4 121q150 4 237 4l799 -2l4 -230l-770 4q-6 -197 -6 -489q301 0 686 6l-4 -229h-682l4 -295l793 20l-4 -229l-820 2q-81 -10 -144 -10q-50 0 -89 6q-9 22 -9 57q0 12 1 25q5 89 6 88v-4v338z" />
<glyph unicode="&#xca;" horiz-adv-x="1370" d="M346 1593l347 234l126 -2l322 -219l-129 -154l-258 188l-266 -186zM92 498l6 225l113 -2v592q0 23 -4 121q150 4 237 4l799 -2l4 -230l-770 4q-6 -197 -6 -489q301 0 686 6l-4 -229h-682l4 -295l793 20l-4 -229l-820 2q-81 -10 -144 -10q-50 0 -89 6q-9 22 -9 57 q0 12 1 25q5 89 6 88v-4v338z" />
<glyph unicode="&#xcb;" horiz-adv-x="1370" d="M366 1649v127l121 22h137l15 -229l-121 -37l-129 8zM803 1569l123 -37l126 8l25 109v127l-121 22h-137zM92 498l6 225l113 -2v592q0 23 -4 121q150 4 237 4l799 -2l4 -230l-770 4q-6 -197 -6 -489q301 0 686 6l-4 -229h-682l4 -295l793 20l-4 -229l-820 2 q-81 -10 -144 -10q-50 0 -89 6q-9 22 -9 57q0 12 1 25q5 89 6 88v-4v338z" />
<glyph unicode="&#xcc;" horiz-adv-x="665" d="M17 1706l147 172l488 -258l-127 -168zM203 -8v59q0 4 6 682q2 137 2 258q0 242 -8 422q69 27 148 27h12l117 -2l2 -76q-10 -442 -11 -1329v-41q-70 -4 -213 -4z" />
<glyph unicode="&#xcd;" horiz-adv-x="665" d="M17 1639l485 258l148 -172l-508 -254zM192 -8v59q0 4 6 682q2 137 2 258q0 242 -8 422q69 27 148 27h12l117 -2l2 -76q-10 -442 -11 -1329v-41q-70 -4 -213 -4z" />
<glyph unicode="&#xce;" horiz-adv-x="794" d="M0 1593l347 234l126 -2l322 -219l-129 -154l-258 188l-266 -186zM258 -8v59q0 4 6 682q2 137 2 258q0 242 -8 422q69 27 148 27h12l117 -2l2 -76q-10 -442 -11 -1329v-41q-70 -4 -213 -4z" />
<glyph unicode="&#xcf;" horiz-adv-x="710" d="M0 1649v127l121 22h137l15 -229l-121 -37l-129 8zM437 1569l123 -37l126 8l25 109v127l-121 22h-137zM207 -8v59q0 4 6 682q2 137 2 258q0 242 -8 422q69 27 148 27h12l117 -2l2 -76q-10 -442 -11 -1329v-41q-70 -4 -213 -4z" />
<glyph unicode="&#xd0;" horiz-adv-x="1640" d="M174 809h133l4 506q0 23 -4 98q76 31 246 33q295 6 260 6q489 0 621 -203q74 -115 73 -303q0 -2 -12 -237q-6 -129 -72 -275q-51 -115 -106 -182q-41 -49 -173 -116.5t-255 -102.5q-66 -20 -168 -27q-160 -8 -170 -10q-156 -16 -232 -4q-10 23 -10 108v484h-131zM571 580 q2 -125 4 -373q135 2 230 29q84 23 186 79q88 49 109 74q127 162 141 336q14 203 14 223q-2 121 -45 182q-49 74 -168 89q-76 2 -184 10q-47 8 -280 -2v-187q2 -162 2 -229l348 2l-4 -229z" />
<glyph unicode="&#xd1;" horiz-adv-x="1572" d="M378 1706q188 141 293 142q49 0 148.5 -71t118.5 -71q61 0 178 170l102 -192q-180 -197 -274 -197q-51 0 -151.5 67.5t-131.5 65.5q-51 -4 -113 -55q-51 -41 -82 -88zM133 -12q16 400 16 768q0 344 -14 659q70 23 152 25q-10 0 157 -4q438 -754 732 -1121q0 115 -7 547 q-5 263 -4 455v121q143 2 142 2q70 -2 135 -27q-12 -302 -13 -632q0 -380 17 -795q-100 2 -293 16q-342 319 -752 1004q2 -338 2 -1014q-29 1 -62.5 1t-72.5 -1q-88 -4 -135 -4z" />
<glyph unicode="&#xd2;" horiz-adv-x="1603" d="M541 1706l147 172l488 -258l-127 -168zM92 643q0 133 43 289q51 193 141.5 291t305.5 168q184 57 321 57q92 0 227 -53q162 -63 242 -156q59 -70 103 -199q37 -119 36 -198q0 -154 -47 -324q-57 -207 -159 -321q-92 -102 -273 -172q-166 -61 -307 -62q-109 0 -238 55 q-139 61 -223 156q-76 86 -127 232q-45 133 -45 237zM354 651q0 -57 31 -151q33 -109 81 -169.5t134 -99.5q78 -37 139 -36q63 0 164 32q109 33 160 76q94 80 145 252q37 131 37 256q0 51 -16 129q-20 86 -47 129q-39 63 -131 109q-80 41 -140 41q-88 0 -223 -43 q-154 -49 -211 -113t-92 -199q-31 -115 -31 -213z" />
<glyph unicode="&#xd3;" horiz-adv-x="1603" d="M551 1639l485 258l148 -172l-508 -254zM92 643q0 133 43 289q51 193 141.5 291t305.5 168q184 57 321 57q92 0 227 -53q162 -63 242 -156q59 -70 103 -199q37 -119 36 -198q0 -154 -47 -324q-57 -207 -159 -321q-92 -102 -273 -172q-166 -61 -307 -62q-109 0 -238 55 q-139 61 -223 156q-76 86 -127 232q-45 133 -45 237zM354 651q0 -57 31 -151q33 -109 81 -169.5t134 -99.5q78 -37 139 -36q63 0 164 32q109 33 160 76q94 80 145 252q37 131 37 256q0 51 -16 129q-20 86 -47 129q-39 63 -131 109q-80 41 -140 41q-88 0 -223 -43 q-154 -49 -211 -113t-92 -199q-31 -115 -31 -213z" />
<glyph unicode="&#xd4;" horiz-adv-x="1603" d="M448 1593l347 234l126 -2l322 -219l-129 -154l-258 188l-266 -186zM92 643q0 133 43 289q51 193 141.5 291t305.5 168q184 57 321 57q92 0 227 -53q162 -63 242 -156q59 -70 103 -199q37 -119 36 -198q0 -154 -47 -324q-57 -207 -159 -321q-92 -102 -273 -172 q-166 -61 -307 -62q-109 0 -238 55q-139 61 -223 156q-76 86 -127 232q-45 133 -45 237zM354 651q0 -57 31 -151q33 -109 81 -169.5t134 -99.5q78 -37 139 -36q63 0 164 32q109 33 160 76q94 80 145 252q37 131 37 256q0 51 -16 129q-20 86 -47 129q-39 63 -131 109 q-80 41 -140 41q-88 0 -223 -43q-154 -49 -211 -113t-92 -199q-31 -115 -31 -213z" />
<glyph unicode="&#xd5;" horiz-adv-x="1583" d="M399 1685q188 141 293 142q49 0 148.5 -71t118.5 -71q61 0 178 170l102 -192q-180 -197 -274 -197q-51 0 -151.5 67.5t-131.5 65.5q-51 -4 -113 -55q-51 -41 -82 -88zM92 643q0 133 43 289q51 193 141.5 291t305.5 168q184 57 321 57q92 0 227 -53q162 -63 242 -156 q59 -70 103 -199q37 -119 36 -198q0 -154 -47 -324q-57 -207 -159 -321q-92 -102 -273 -172q-166 -61 -307 -62q-109 0 -238 55q-139 61 -223 156q-76 86 -127 232q-45 133 -45 237zM354 651q0 -57 31 -151q33 -109 81 -169.5t134 -99.5q78 -37 139 -36q63 0 164 32 q109 33 160 76q94 80 145 252q37 131 37 256q0 51 -16 129q-20 86 -47 129q-39 63 -131 109q-80 41 -140 41q-88 0 -223 -43q-154 -49 -211 -113t-92 -199q-31 -115 -31 -213z" />
<glyph unicode="&#xd6;" horiz-adv-x="1603" d="M510 1649v127l121 22h137l15 -229l-121 -37l-129 8zM947 1569l123 -37l126 8l25 109v127l-121 22h-137zM92 643q0 133 43 289q51 193 141.5 291t305.5 168q184 57 321 57q92 0 227 -53q162 -63 242 -156q59 -70 103 -199q37 -119 36 -198q0 -154 -47 -324 q-57 -207 -159 -321q-92 -102 -273 -172q-166 -61 -307 -62q-109 0 -238 55q-139 61 -223 156q-76 86 -127 232q-45 133 -45 237zM354 651q0 -57 31 -151q33 -109 81 -169.5t134 -99.5q78 -37 139 -36q63 0 164 32q109 33 160 76q94 80 145 252q37 131 37 256q0 51 -16 129 q-20 86 -47 129q-39 63 -131 109q-80 41 -140 41q-88 0 -223 -43q-154 -49 -211 -113t-92 -199q-31 -115 -31 -213z" />
<glyph unicode="&#xd7;" horiz-adv-x="913" d="M102 571l172 146l193 -180l186 159l158 -153l-186 -152l166 -155l-179 -144l-159 150l-193 -148l-149 152l182 149z" />
<glyph unicode="&#xd8;" horiz-adv-x="1603" d="M92 643q0 133 43 291q51 195 141.5 293t305.5 168q184 57 321 57q41 0 105 -14l55 108q68 -10 145 -37q57 -18 156 -18l-47 -94q-14 -20 -43 -70q59 -39 98 -84q59 -70 103 -201q37 -119 36 -198q0 -156 -47 -326q-57 -209 -159 -323q-92 -104 -273 -172 q-166 -63 -307 -64q-72 0 -160 29q-14 -31 -39 -78l2 8q-8 -29 -47 -29q-20 0 -100 43l-137 25q0 45 69 166q-96 84 -159 239q-62 150 -62 281zM354 653q0 -137 84 -282l457 852q-96 -6 -219 -47q-145 -49 -200.5 -112t-90.5 -198q-31 -117 -31 -213zM678 205q37 -12 61 -12 q63 0 164 30q109 37 160 80q94 78 145 252q37 131 37 258q0 51 -16 127q-20 88 -47 131q-10 18 -27 37l-248 -451q-8 -18 -229 -452z" />
<glyph unicode="&#xd9;" horiz-adv-x="1456" d="M398 1706l147 172l488 -258l-127 -168zM102 1415l275 51q-12 -282 -12 -516q0 -88 2 -170q6 -362 12 -424q14 -180 65 -180h2q104 8 613 152l-25 1104h271l8 -1416l-262 -45v113l-521 -137q-68 -16 -120 -17q-197 0 -260 260q-37 158 -38.5 643.5t-9.5 581.5z" />
<glyph unicode="&#xda;" horiz-adv-x="1456" d="M408 1639l485 258l148 -172l-508 -254zM102 1415l275 51q-12 -282 -12 -516q0 -88 2 -170q6 -362 12 -424q14 -180 65 -180h2q104 8 613 152l-25 1104h271l8 -1416l-262 -45v113l-521 -137q-68 -16 -120 -17q-197 0 -260 260q-37 158 -38.5 643.5t-9.5 581.5z" />
<glyph unicode="&#xdb;" horiz-adv-x="1456" d="M325 1593l347 234l126 -2l322 -219l-129 -154l-258 188l-266 -186zM102 1415l275 51q-12 -282 -12 -516q0 -88 2 -170q6 -362 12 -424q14 -180 65 -180h2q104 8 613 152l-25 1104h271l8 -1416l-262 -45v113l-521 -137q-68 -16 -120 -17q-197 0 -260 260 q-37 158 -38.5 643.5t-9.5 581.5z" />
<glyph unicode="&#xdc;" horiz-adv-x="1456" d="M366 1649v127l121 22h137l15 -229l-121 -37l-129 8zM803 1569l123 -37l126 8l25 109v127l-121 22h-137zM102 1415l275 51q-12 -282 -12 -516q0 -88 2 -170q6 -362 12 -424q14 -180 65 -180h2q104 8 613 152l-25 1104h271l8 -1416l-262 -45v113l-521 -137 q-68 -16 -120 -17q-197 0 -260 260q-37 158 -38.5 643.5t-9.5 581.5z" />
<glyph unicode="&#xdd;" horiz-adv-x="1406" d="M387 1639l485 258l148 -172l-508 -254zM51 1393l289 47q4 -45 14 -97q27 -127 84 -272q51 -125 168 -276q100 -131 115 -131q29 0 116 145t132 274q76 217 98 355l291 -39q-25 -74 -146 -400q-61 -162 -149 -286q-59 -86 -203 -244l-2 -465l-264 -10l-2 467 q-291 268 -402 538q-96 232 -139 394z" />
<glyph unicode="&#xde;" horiz-adv-x="1296" d="M154 1386q109 45 266 46l-2 -242q225 94 350 94q276 0 358 -98q68 -82 68 -350q0 -346 -217 -498q-174 -123 -555 -148l-2 -184q-104 -6 -258 -51q4 284 -8 1431zM412 848q0 -51 8 -436q358 35 471 168q16 20 35 86q23 82 22 168q0 111 -39 206q-8 20 -69 25 q-57 -2 -115 -2q-39 0 -311 -107q-2 -65 -2 -108z" />
<glyph unicode="&#xdf;" horiz-adv-x="1419" d="M174 1413q59 23 137 25l138 -4q23 0 116 4q80 4 131 4q262 0 367 -99q86 -80 86 -215q0 -205 -236 -319q-37 -12 -106 -45q-31 -20 -31 -53q0 -51 135 -84q203 -49 250 -70q135 -63 135 -190q0 -80 -61 -172q-63 -98 -154 -142q-174 -84 -389 -84q-78 0 -139 11l-55 210 q96 -12 166 -12q168 0 290 58q84 39 84 104q0 29 -139 59q-176 39 -256 88q-137 84 -137 244q0 102 108 180q35 23 203 103q68 33 68 106q0 39 -25 66q-39 43 -416 28q-6 -225 -6 -565q0 -106 4 -657q-43 4 -67 4q-57 0 -80 -2q-61 -10 -111 -2q-8 20 -8 106l2 1217 q0 20 -4 98z" />
<glyph unicode="&#xe0;" horiz-adv-x="1181" d="M277 1450l147 172l488 -258l-127 -168zM82 307q0 98 59 195q66 106 174 149q98 39 461 101q-8 184 -45 184h-2q-117 -16 -172 -27q-98 -20 -367 -108l-75 200q250 98 444 129l123 19q47 6 86 6q186 0 240 -213q29 -119 28.5 -491.5t12.5 -442.5l-267 -51v61 q-168 -43 -274 -43q-313 0 -375 48q-51 38 -51 284zM330 270q0 -66 20 -82q8 -6 39 -8q20 0 58 3t45 3q111 0 296 52q2 77 2.5 150.5t-2.5 143.5q-164 -14 -241 -30q-168 -37 -197 -99q-20 -49 -20 -133z" />
<glyph unicode="&#xe1;" horiz-adv-x="1181" d="M82 307q0 98 59 195q66 106 174 149q98 39 461 101q-8 188 -47 184q-117 -16 -172 -27q-98 -20 -367 -108l-75 200q250 98 444 129l123 19q47 6 86 6q186 0 240 -213q29 -119 28.5 -491.5t12.5 -442.5l-267 -51v61q-168 -43 -274 -43q-313 0 -375 48q-51 38 -51 284z M291 1374l489 248l150 -166l-512 -244zM330 270q0 -66 20 -82q8 -6 39 -8q20 0 58 3t45 3q111 0 296 52q4 154 0 294q-164 -14 -241 -30q-168 -37 -197 -99q-20 -49 -20 -133z" />
<glyph unicode="&#xe2;" horiz-adv-x="1181" d="M186 1337l347 234l126 -2l322 -219l-129 -154l-258 188l-266 -186zM82 307q0 98 59 195q66 106 174 149q98 39 461 101q-8 184 -45 184h-2q-117 -16 -172 -27q-98 -20 -367 -108l-75 200q250 98 444 129l123 19q47 6 86 6q186 0 240 -213q29 -119 28.5 -491.5 t12.5 -442.5l-267 -51v61q-168 -43 -274 -43q-313 0 -375 48q-51 38 -51 284zM330 270q0 -66 20 -82q8 -6 39 -8q20 0 58 3t45 3q111 0 296 52q2 77 2.5 150.5t-2.5 143.5q-164 -14 -241 -30q-168 -37 -197 -99q-20 -49 -20 -133z" />
<glyph unicode="&#xe3;" horiz-adv-x="1181" d="M82 307q0 98 59 195q66 106 174 149q98 39 461 101q-8 188 -47 184q-117 -16 -172 -27q-98 -20 -367 -108l-75 200q250 98 444 129l123 19q47 6 86 6q186 0 240 -213q29 -119 28.5 -491.5t12.5 -442.5l-267 -51v61q-168 -43 -274 -43q-313 0 -375 48q-51 38 -51 284z M152 1415q190 127 297 127q47 0 148 -63.5t120 -63.5q61 0 180 154l102 -172q-182 -178 -276 -178q-53 0 -154.5 61t-132.5 59q-104 -8 -196 -131zM330 270q0 -66 20 -82q8 -6 39 -8q20 0 58 3t45 3q111 0 296 52q4 154 0 294q-164 -14 -241 -30q-168 -37 -197 -99 q-20 -49 -20 -133z" />
<glyph unicode="&#xe4;" horiz-adv-x="1181" d="M254 1395v127l121 22h137l15 -229l-121 -37l-129 8zM691 1315l123 -37l126 8l25 109v127l-121 22h-137zM82 307q0 98 59 195q66 106 174 149q98 39 461 101q-8 184 -45 184h-2q-117 -16 -172 -27q-98 -20 -367 -108l-75 200q250 98 444 129l123 19q47 6 86 6 q186 0 240 -213q29 -119 28.5 -491.5t12.5 -442.5l-267 -51v61q-168 -43 -274 -43q-313 0 -375 48q-51 38 -51 284zM330 270q0 -66 20 -82q8 -6 39 -8q20 0 58 3t45 3q111 0 296 52q2 77 2.5 150.5t-2.5 143.5q-164 -14 -241 -30q-168 -37 -197 -99q-20 -49 -20 -133z" />
<glyph unicode="&#xe5;" horiz-adv-x="1181" d="M702 1118q-78 -35 -145 -34q-53 0 -121 31.5t-92 66.5q-61 88 -62 170q0 55 33 133t72 107q88 66 235 65q125 0 205 -84q59 -63 62 -153q2 -63 -25 -138t-63 -105t-99 -59zM624 1489q-76 0 -112.5 -30.5t-36.5 -102.5q0 -35 31 -78q18 -29 55 -26q66 2 100.5 37.5 t34.5 117.5t-72 82zM82 307q0 98 59 195q66 106 174 149q98 39 461 101q-8 184 -45 184h-2q-117 -16 -172 -27q-98 -20 -367 -108l-75 200q250 98 444 129l123 19q47 6 86 6q186 0 240 -213q29 -119 28.5 -491.5t12.5 -442.5l-267 -51v61q-168 -43 -274 -43q-313 0 -375 48 q-51 38 -51 284zM330 270q0 -66 20 -82q8 -6 39 -8q20 0 58 3t45 3q111 0 296 52q2 77 2.5 150.5t-2.5 143.5q-164 -14 -241 -30q-168 -37 -197 -99q-20 -49 -20 -133z" />
<glyph unicode="&#xe6;" horiz-adv-x="1941" d="M82 309q0 96 59 193q66 106 174 149q98 39 461 103l-4 131q-2 53 -22 51l-193 -27q-98 -20 -367 -106l-75 198q78 31 149 54q174 57 295 75l123 19q55 8 100 8q150 0 207 -106q193 94 371 96q82 2 196 -43q102 -41 150 -82q33 -29 81 -153t52 -195q4 -82 -10 -195 l-756 -96q23 -125 54.5 -150.5t189.5 -37.5q12 0 30.5 -2.5t22.5 -2.5q137 0 356 82l-6 -239q-195 -57 -358 -58h-72q-213 0 -342 91q-74 -31 -117 -33q-203 -57 -323 -58q-313 0 -375 48q-51 38 -51 286zM330 272q0 -68 20 -84q8 -6 39 -6q20 -2 58 1t45 3q111 0 296 52 q4 156 0 297q-164 -16 -241 -33q-168 -35 -197 -99q-20 -47 -20 -131zM1057 592l540 74q-10 96 -67 178q-14 20 -71.5 48t-90.5 26q-68 -4 -154 -30t-114 -50q-39 -37 -43 -246z" />
<glyph unicode="&#xe7;" horiz-adv-x="1144" d="M430 -410l52 158q84 -29 206 -16q33 2 58 32q18 23 12 25q-88 33 -225 10l8 277h209l-6 -127q57 -6 121 -29q78 -29 98 -59.5t20 -67.5q0 -80 -57 -137q-90 -90 -209 -98q-103 -7 -287 32zM72 451q0 172 67 327q80 180 226.5 267.5t574.5 101.5l72 -221q-61 2 -116 1 q-326 0 -396 -63q-66 -57 -111 -173t-45 -216q2 -281 311 -285h7q130 0 350 82l-6 -239q-182 -53 -359 -53q-252 0 -405 110q-170 125 -170 361z" />
<glyph unicode="&#xe8;" horiz-adv-x="1265" d="M318 1430l147 172l488 -258l-127 -168zM72 518q0 137 32 264q45 172 134 242q49 37 185 79t230 44h7q78 0 190 -45q102 -39 149 -80q33 -29 81 -154t53 -194q1 -18 0 -38q0 -69 -11 -157l-776 -96q33 -121 80 -152q37 -25 184 -36q12 0 30.5 -2.5t23.5 -2.5q137 0 356 82 l-6 -239q-195 -57 -359 -58h-71q-96 0 -195 23q-113 29 -166 76q-66 59 -110 209q-41 133 -41 235zM334 592l557 74q-10 96 -68 178q-14 20 -71 48q-53 26 -86 26h-4q-68 -4 -154 -30t-115 -52q-36 -33 -59 -244z" />
<glyph unicode="&#xe9;" horiz-adv-x="1265" d="M72 518q0 137 32 264q45 172 134 242q49 37 185 79t230 44q80 2 197 -45q102 -39 149 -80q33 -29 81 -154t53 -194q4 -82 -11 -195l-776 -96q33 -121 80 -152q37 -25 184 -36q12 0 30.5 -2.5t23.5 -2.5q137 0 356 82l-6 -239q-195 -57 -359 -58h-71q-96 0 -195 23 q-113 29 -166 76q-66 59 -110 209q-41 133 -41 235zM332 1374l489 248l150 -166l-512 -244zM334 592l557 74q-10 96 -68 178q-14 20 -71.5 48t-89.5 26q-68 -4 -154 -30t-115 -52q-36 -33 -59 -244z" />
<glyph unicode="&#xea;" horiz-adv-x="1265" d="M247 1337l347 234l126 -2l322 -219l-129 -154l-258 188l-266 -186zM72 518q0 137 32 264q45 172 134 242q49 37 185 79t230 44h7q78 0 190 -45q102 -39 149 -80q33 -29 81 -154t53 -194q1 -18 0 -38q0 -69 -11 -157l-776 -96q33 -121 80 -152q37 -25 184 -36 q12 0 30.5 -2.5t23.5 -2.5q137 0 356 82l-6 -239q-195 -57 -359 -58h-71q-96 0 -195 23q-113 29 -166 76q-66 59 -110 209q-41 133 -41 235zM334 592l557 74q-10 96 -68 178q-14 20 -71 48q-53 26 -86 26h-4q-68 -4 -154 -30t-115 -52q-36 -33 -59 -244z" />
<glyph unicode="&#xeb;" horiz-adv-x="1265" d="M315 1395v127l121 22h137l15 -229l-121 -37l-129 8zM752 1315l123 -37l126 8l25 109v127l-121 22h-137zM72 518q0 137 32 264q45 172 134 242q49 37 185 79t230 44h7q78 0 190 -45q102 -39 149 -80q33 -29 81 -154t53 -194q1 -18 0 -38q0 -69 -11 -157l-776 -96 q33 -121 80 -152q37 -25 184 -36q12 0 30.5 -2.5t23.5 -2.5q137 0 356 82l-6 -239q-195 -57 -359 -58h-71q-96 0 -195 23q-113 29 -166 76q-66 59 -110 209q-41 133 -41 235zM334 592l557 74q-10 96 -68 178q-14 20 -71 48q-53 26 -86 26h-4q-68 -4 -154 -30t-115 -52 q-36 -33 -59 -244z" />
<glyph unicode="&#xec;" horiz-adv-x="665" d="M469 -16q-53 10 -96 10q-84 0 -180 -47l-2 100q-2 55 0 186q8 225 0 711v170q53 2 100 6q111 10 172 35l-2 -90q-2 -152 -2 -463l8 -430q-2 -63 2 -188zM17 1430l147 172l488 -258l-127 -168z" />
<glyph unicode="&#xed;" horiz-adv-x="671" d="M16 1374l490 248l149 -166l-514 -244zM215 1114q55 2 100 6q113 10 172 35v-90q-4 -152 -4 -463l9 -430q0 -63 4 -188q-55 10 -97 10q-84 0 -180 -47l-2 100q-2 55 0 186q8 225 0 711q-2 61 -2 170z" />
<glyph unicode="&#xee;" horiz-adv-x="794" d="M542 -16q-53 10 -96 10q-84 0 -180 -47l-2 100q-2 55 0 186q8 225 0 711v170q53 2 100 6q111 10 172 35l-2 -90q-2 -152 -2 -463l8 -430q-2 -63 2 -188zM0 1337l347 234l126 -2l322 -219l-129 -154l-258 188l-266 -186z" />
<glyph unicode="&#xef;" horiz-adv-x="710" d="M508 -16q-53 10 -96 10q-84 0 -180 -47l-2 100q-2 55 0 186q8 225 0 711v170q53 2 100 6q111 10 172 35l-2 -90q-2 -152 -2 -463l8 -430q-2 -63 2 -188zM0 1395v127l121 22h137l15 -229l-121 -37l-129 8zM437 1315l123 -37l126 8l25 109v127l-121 22h-137z" />
<glyph unicode="&#xf0;" horiz-adv-x="1132" d="M102 330q-4 172 174 338q137 127 275 182l-66 100l-227 -153l-141 180l211 151l-150 154l123 193l229 -213l191 137l139 -187l-168 -125l168 -210q41 -68 72 -127q76 -145 87 -243.5t11 -139.5q0 -119 -65 -213q-143 -209 -428 -189q-174 12 -297 105q-134 102 -138 260z M367 317q8 -111 139 -143q27 -8 53 -8q80 0 147.5 70.5t67.5 160.5q0 125 -90 267q-94 -31 -139 -62t-107 -100q-79 -97 -71 -185z" />
<glyph unicode="&#xf1;" horiz-adv-x="1314" d="M154 1092l256 43v-84l397 96q53 12 98 12q172 0 225 -215q29 -121 29 -493.5t12 -442.5l-268 -51q12 309 8 535q-4 233 -10 307q-14 139 -51 137q-66 -6 -447 -107l21 -829h-264zM193 1415q190 127 296 127q47 0 148.5 -63.5t120.5 -63.5q61 0 180 154l102 -172 q-182 -178 -276 -178q-53 0 -154.5 61t-132.5 59q-104 -8 -196 -131z" />
<glyph unicode="&#xf2;" d="M359 1430l147 172l488 -258l-127 -168zM72 518q0 111 64.5 274.5t129 216t180.5 91.5q139 47 281 47q106 0 221 -53q106 -49 166 -117q109 -125 113 -303v-19q0 -126 -49 -276q-51 -154 -109 -207q-72 -66 -199 -127q-156 -74 -280 -74q-98 0 -228.5 66.5t-172.5 131 t-76 165.5q-41 112 -41 184zM334 526q0 -104 80 -229q20 -31 78 -64q54 -31 100 -30h6q88 4 174 47q68 35 99.5 70.5t61.5 138t30 188.5q0 119 -66 195t-164 76q-190 0 -295 -95q-39 -33 -69 -114q-35 -93 -35 -183z" />
<glyph unicode="&#xf3;" d="M72 518q0 111 64.5 274.5t129 216t180.5 91.5q139 47 281 47q106 0 221 -53q106 -49 166 -117q109 -125 113 -303q4 -133 -49 -295q-51 -154 -109 -207q-72 -66 -199 -127q-156 -74 -280 -74q-98 0 -228.5 66.5t-172.5 131t-76 165.5q-41 112 -41 184zM334 526 q0 -104 80 -229q20 -31 77.5 -63.5t106.5 -30.5q88 4 174 47q68 35 99.5 70.5t61.5 138t30 188.5q0 119 -66 195t-164 76q-190 0 -295 -95q-39 -33 -69 -114q-35 -93 -35 -183zM352 1374l490 248l149 -166l-512 -244z" />
<glyph unicode="&#xf4;" d="M72 518q0 111 64.5 274.5t129 216t180.5 91.5q139 47 281 47q106 0 221 -53q106 -49 166 -117q109 -125 113 -303v-19q0 -126 -49 -276q-51 -154 -109 -207q-72 -66 -199 -127q-156 -74 -280 -74q-98 0 -228.5 66.5t-172.5 131t-76 165.5q-41 112 -41 184zM334 526 q0 -104 80 -229q20 -31 78 -64q54 -31 100 -30h6q88 4 174 47q68 35 99.5 70.5t61.5 138t30 188.5q0 119 -66 195t-164 76q-190 0 -295 -95q-39 -33 -69 -114q-35 -93 -35 -183zM268 1337l347 234l126 -2l322 -219l-129 -154l-258 188l-266 -186z" />
<glyph unicode="&#xf5;" d="M72 518q0 111 64.5 274.5t129 216t180.5 91.5q139 47 281 47q106 0 221 -53q106 -49 166 -117q109 -125 113 -303q4 -133 -49 -295q-51 -154 -109 -207q-72 -66 -199 -127q-156 -74 -280 -74q-98 0 -228.5 66.5t-172.5 131t-76 165.5q-41 112 -41 184zM233 1415 q190 127 297 127q47 0 148.5 -63.5t120.5 -63.5q61 0 180 154l102 -172q-182 -178 -276 -178q-53 0 -154.5 61t-132.5 59q-104 -8 -196 -131zM334 526q0 -104 80 -229q20 -31 77.5 -63.5t106.5 -30.5q88 4 174 47q68 35 99.5 70.5t61.5 138t30 188.5q0 119 -66 195t-164 76 q-190 0 -295 -95q-39 -33 -69 -114q-35 -93 -35 -183z" />
<glyph unicode="&#xf6;" d="M335 1395v127l121 22h137l15 -229l-121 -37l-129 8zM772 1315l123 -37l126 8l25 109v127l-121 22h-137zM72 518q0 111 64.5 274.5t129 216t180.5 91.5q139 47 281 47q106 0 221 -53q106 -49 166 -117q109 -125 113 -303v-19q0 -126 -49 -276q-51 -154 -109 -207 q-72 -66 -199 -127q-156 -74 -280 -74q-98 0 -228.5 66.5t-172.5 131t-76 165.5q-41 112 -41 184zM334 526q0 -104 80 -229q20 -31 78 -64q54 -31 100 -30h6q88 4 174 47q68 35 99.5 70.5t61.5 138t30 188.5q0 119 -66 195t-164 76q-190 0 -295 -95q-39 -33 -69 -114 q-35 -93 -35 -183z" />
<glyph unicode="&#xf7;" horiz-adv-x="897" d="M72 522l753 4l-4 -241h-745zM319 98v117l107 21h121l14 -213l-108 -33l-113 8zM319 672v116l107 21h121l14 -213l-108 -33l-113 8z" />
<glyph unicode="&#xf8;" d="M72 518q0 100 57 260q63 176 139 239.5t219 102.5q127 35 240 35q35 0 72 -6l71 156q35 -6 121 -33q57 -18 133 -19q-39 -86 -96 -198q199 -137 199 -396q0 -106 -41 -253q-47 -172 -117 -238q-80 -78 -221 -139q-147 -66 -258 -66q-37 0 -78 10q-16 -41 -74 -161 q-102 66 -239 79q61 121 90 183q-70 45 -99 88q-43 66 -80.5 175t-37.5 181zM334 526q0 -94 67 -213l291 611q-176 -4 -267 -109t-91 -289zM618 199q63 6 139.5 40.5t113 78.5t65.5 153q27 100 27 178q0 98 -48 172z" />
<glyph unicode="&#xf9;" horiz-adv-x="1273" d="M318 1430l147 172l488 -258l-127 -168zM102 1098l269 51q-9 -232 -10 -417q0 -62 1 -118q4 -233 11 -307q14 -137 50 -137h1q66 6 444 106l-18 830h264l6 -1092l-256 -43v84l-397 -96q-55 -12 -98 -12q-172 0 -226 215q-29 121 -29 493.5t-12 442.5z" />
<glyph unicode="&#xfa;" horiz-adv-x="1273" d="M102 1098l269 51q-12 -309 -9 -535q4 -233 11 -307q14 -139 51 -137q66 6 444 106l-18 830h264l6 -1092l-256 -43v84l-397 -96q-55 -12 -98 -12q-172 0 -226 215q-29 121 -29 493.5t-12 442.5zM332 1374l489 248l150 -166l-512 -244z" />
<glyph unicode="&#xfb;" horiz-adv-x="1273" d="M206 1337l347 234l126 -2l322 -219l-129 -154l-258 188l-266 -186zM102 1098l269 51q-9 -232 -10 -417q0 -62 1 -118q4 -233 11 -307q14 -137 50 -137h1q66 6 444 106l-18 830h264l6 -1092l-256 -43v84l-397 -96q-55 -12 -98 -12q-172 0 -226 215q-29 121 -29 493.5 t-12 442.5z" />
<glyph unicode="&#xfc;" horiz-adv-x="1273" d="M274 1395v127l121 22h137l15 -229l-121 -37l-129 8zM711 1315l123 -37l126 8l25 109v127l-121 22h-137zM102 1098l269 51q-9 -232 -10 -417q0 -62 1 -118q4 -233 11 -307q14 -137 50 -137h1q66 6 444 106l-18 830h264l6 -1092l-256 -43v84l-397 -96q-55 -12 -98 -12 q-172 0 -226 215q-29 121 -29 493.5t-12 442.5z" />
<glyph unicode="&#xfd;" horiz-adv-x="1259" d="M61 1083l269 54q100 -512 170 -645q53 -98 190 -254q109 211 160 424q49 195 72 479l276 -39q-51 -352 -123 -574q-76 -236 -231 -514q-133 -238 -336 -479l-227 129q188 207 278 348q-205 227 -283 348q-90 143 -215 723zM311 1374l490 248l149 -166l-512 -244z" />
<glyph unicode="&#xfe;" horiz-adv-x="1296" d="M154 1305q109 45 266 45l-2 -283q225 96 350 96q287 0 367 -110q59 -82 59 -363q0 -383 -190 -540q-168 -135 -582 -164l-2 -183q-104 -8 -260 -53q4 96 0 146v24q0 100 3 302t3 302q0 129 -6 381q-6 287 -6 400zM412 725q0 -88 8 -516q297 25 403 110q125 100 125 369 q0 174 -28 209q-35 43 -195 43q-39 0 -311 -104z" />
<glyph unicode="&#xff;" horiz-adv-x="1259" d="M274 1395v127l121 22h137l15 -229l-121 -37l-129 8zM711 1315l123 -37l126 8l25 109v127l-121 22h-137zM61 1083l269 54q100 -512 170 -645q53 -98 190 -254q109 211 160 424q49 195 72 479l276 -39q-51 -352 -123 -574q-76 -236 -231 -514q-133 -238 -336 -479l-227 129 q188 207 278 348q-205 227 -283 348q-90 143 -215 723z" />
<glyph unicode="&#x131;" horiz-adv-x="606" d="M442 -16q-53 10 -96 10q-84 0 -180 -47l-2 100q-2 55 0 186q8 225 0 711v170q53 2 100 6q111 10 172 35l-2 -90q-2 -152 -2 -463l8 -430q-2 -63 2 -188z" />
<glyph unicode="&#x152;" horiz-adv-x="2125" d="M92 643q0 133 43 289q51 193 140.5 290t353.5 160q213 53 368 54q41 12 103 8q109 -6 100 -6l801 -2l2 -230l-768 4q-6 -197 -6 -489q301 0 684 6l-2 -229h-682l2 -295l792 20l-2 -229l-821 2q-31 -4 -123 -8q-90 -2 -98 0l6 -2q-141 0 -340 43q-260 55 -341 147 t-144 225q-68 144 -68 242zM354 653q0 -47 48.5 -149.5t103.5 -171.5q41 -49 209 -86q119 -25 246 -33q2 88 4 283l-117 2l8 225l113 -2l-2 493q-123 -12 -265 -49q-176 -47 -225 -102q-57 -63 -92 -199q-31 -115 -31 -211z" />
<glyph unicode="&#x153;" horiz-adv-x="2156" d="M102 518q0 111 64.5 274.5t129 216t181.5 91.5q139 47 281 47q100 0 207 -47q100 -43 163 -107q55 61 211 109q139 43 236 45q82 2 197 -45q102 -39 149 -80q33 -29 81 -154t52 -194q4 -82 -10 -195l-776 -96q33 -121 80 -152q37 -25 184 -36q12 0 30.5 -2.5t22.5 -2.5 q137 0 357 82l-7 -239q-195 -57 -358 -58h-72q-96 0 -194 23q-113 29 -166 76q-31 29 -58 86q-80 -66 -198 -121q-150 -68 -268 -68q-98 0 -228.5 66.5t-172.5 131t-77 165.5q-41 112 -41 184zM365 526q0 -104 79 -229q20 -31 78 -63.5t107 -30.5q88 4 174 47 q68 35 99.5 70.5t61 138t29.5 188.5q0 119 -65.5 195t-163.5 76q-190 0 -295 -95q-39 -33 -70 -114q-34 -93 -34 -183zM1255 592l557 74q-10 96 -67 178q-14 20 -71.5 48t-90.5 26q-68 -4 -154 -30t-114 -52q-37 -33 -60 -244z" />
<glyph unicode="&#x178;" horiz-adv-x="1406" d="M346 1649v127l121 22h137l15 -229l-121 -37l-129 8zM783 1569l123 -37l126 8l25 109v127l-121 22h-137zM51 1393l289 47q4 -45 14 -97q27 -127 84 -272q51 -125 168 -276q100 -131 115 -131q29 0 116 145t132 274q76 217 98 355l291 -39q-25 -74 -146 -400 q-61 -162 -149 -286q-59 -86 -203 -244l-2 -465l-264 -10l-2 467q-291 268 -402 538q-96 232 -139 394z" />
<glyph unicode="&#x2c6;" horiz-adv-x="999" d="M102 1421l347 234l126 -2l322 -219l-129 -154l-258 188l-266 -186z" />
<glyph unicode="&#x2da;" horiz-adv-x="811" d="M522 1130q-78 -35 -145 -34q-53 0 -121 31.5t-92 66.5q-61 88 -62 170q0 55 33 133t72 107q88 66 235 65q125 0 205 -84q59 -63 62 -153q2 -63 -25 -138t-63 -105t-99 -59zM444 1501q-76 0 -112.5 -30.5t-36.5 -102.5q0 -35 31 -78q18 -29 55 -26q66 2 100.5 37.5 t34.5 117.5t-72 82z" />
<glyph unicode="&#x2dc;" horiz-adv-x="1044" d="M102 1507q188 141 293 142q49 0 148.5 -71t118.5 -71q61 0 178 170l102 -192q-180 -197 -274 -197q-51 0 -151.5 67.5t-131.5 65.5q-51 -4 -113 -55q-51 -41 -82 -88z" />
<glyph unicode="&#x2000;" horiz-adv-x="950" />
<glyph unicode="&#x2001;" horiz-adv-x="1902" />
<glyph unicode="&#x2002;" horiz-adv-x="950" />
<glyph unicode="&#x2003;" horiz-adv-x="1902" />
<glyph unicode="&#x2004;" horiz-adv-x="632" />
<glyph unicode="&#x2005;" horiz-adv-x="475" />
<glyph unicode="&#x2006;" horiz-adv-x="315" />
<glyph unicode="&#x2007;" horiz-adv-x="315" />
<glyph unicode="&#x2008;" horiz-adv-x="237" />
<glyph unicode="&#x2009;" horiz-adv-x="378" />
<glyph unicode="&#x200a;" horiz-adv-x="104" />
<glyph unicode="&#x2010;" horiz-adv-x="897" d="M72 727l753 4l-4 -242h-745z" />
<glyph unicode="&#x2011;" horiz-adv-x="897" d="M72 727l753 4l-4 -242h-745z" />
<glyph unicode="&#x2012;" horiz-adv-x="897" d="M72 727l753 4l-4 -242h-745z" />
<glyph unicode="&#x2013;" horiz-adv-x="1105" d="M76 727l958 4l-12 -242h-942z" />
<glyph unicode="&#x2014;" horiz-adv-x="1310" d="M76 727l1163 4l-12 -242h-1147z" />
<glyph unicode="&#x2018;" horiz-adv-x="485" d="M72 969l69 272l109 219l164 -123l-39 -159l-37 -215z" />
<glyph unicode="&#x2019;" horiz-adv-x="485" d="M72 1087l39 160l36 213l267 -6l-70 -271l-108 -221z" />
<glyph unicode="&#x201a;" horiz-adv-x="485" d="M72 -80l39 160l36 213l267 -6l-70 -271l-108 -221z" />
<glyph unicode="&#x201c;" horiz-adv-x="833" d="M72 969l69 272l109 219l164 -123l-39 -159l-37 -215zM420 969l69 272l109 219l164 -123l-39 -159l-37 -215z" />
<glyph unicode="&#x201d;" horiz-adv-x="833" d="M72 1087l39 160l36 213l267 -6l-70 -271l-108 -221zM420 1087l39 160l36 213l267 -6l-70 -271l-108 -221z" />
<glyph unicode="&#x201e;" horiz-adv-x="833" d="M72 -80l39 160l36 213l267 -6l-70 -271l-108 -221zM420 -80l39 160l36 213l267 -6l-70 -271l-108 -221z" />
<glyph unicode="&#x2022;" horiz-adv-x="997" d="M143 524q0 102 37 199q33 86 80 129q117 111 324 111q63 0 129 -39q57 -37 86 -82q55 -88 55 -189q0 -193 -102 -315q-35 -45 -109 -84q-96 -51 -192 -55q-61 -2 -134 41q-61 37 -88 78l-53 83q-33 62 -33 123z" />
<glyph unicode="&#x2026;" horiz-adv-x="1447" d="M102 117v145l134 25h151l16 -264l-135 -39l-141 8zM573 117v145l134 25h151l16 -264l-135 -39l-141 8zM1044 117v145l134 25h151l16 -264l-135 -39l-141 8z" />
<glyph unicode="&#x202f;" horiz-adv-x="378" />
<glyph unicode="&#x2039;" horiz-adv-x="776" d="M102 578l512 440l127 -154l-403 -352l418 -338l-146 -143l-499 397z" />
<glyph unicode="&#x203a;" horiz-adv-x="776" d="M20 174l146 -143l500 397l8 150l-512 440l-127 -154l401 -352z" />
<glyph unicode="&#x205f;" horiz-adv-x="475" />
<glyph unicode="&#x2122;" horiz-adv-x="1470" d="M72 1323l24 147l520 3l19 -152q-59 4 -197 10v-213q0 -41 2 -287q-31 -4 -51 -4q-61 0 -57 2q-20 -2 -45 2q-14 33 -13 70q4 84 0 428q-73 -2 -202 -6zM643 848q31 385 78 618l158 13q90 -201 143 -351q53 150 143 351l156 -13q35 -182 53 -340q8 -59 25 -278l-160 -35 q-14 184 -33 361q-66 -162 -121 -345l-129 2q-39 131 -112 328q-14 -92 -39 -346z" />
<glyph unicode="&#xe000;" horiz-adv-x="1150" d="M0 1150h1150v-1150h-1150v1150z" />
<glyph unicode="&#xfb01;" horiz-adv-x="1458" d="M1004 1335v138l133 24h151l17 -229l-136 -39l-141 8zM1016 47q-1 58 -1 106t1 85q4 106 4 280t-4 416q-1 32 -1 75.5t1 98.5q56 -5 103 -5q106 0 165 25q1 -47 1 -111.5t-1 -146.5q-2 -166 -2 -258l8 -438q0 -63 4 -190q-55 10 -96 10q-84 0 -180 -47zM76 938l6 205h156 q16 152 90 205q49 37 229 69q109 20 203 21q61 0 131 -11l-74 -184q-197 -10 -317 -47q-8 -2 -8 -53h276l-18 -209l-273 2q-2 -78 -2 -174q0 -324 25 -776l-281 -4q11 67 11 287q0 63 -1 139q-3 257 -2 406v122z" />
<glyph unicode="&#xfb02;" horiz-adv-x="1433" d="M1004 1272v123q111 43 274 43q2 -63 2 -76q-5 -91 -5 -386q0 -221 3 -556q1 -35 1 -94q0 -118 -3 -334q-83 12 -124 12q-15 0 -23 -2q-65 -11 -95 -11q-8 0 -14 1q-13 25 -13 61q0 5 1 10q1 339 1 587q0 495 -5 622zM76 938l6 205h156q16 152 90 205q49 37 229 69 q109 20 203 21q61 0 131 -11l-74 -184q-197 -10 -317 -47q-8 -2 -8 -53h276l-18 -209l-273 2q-2 -78 -2 -174q0 -324 25 -776l-281 -4q11 67 11 287q0 63 -1 139q-3 257 -2 406v122z" />
<glyph unicode="&#xfb03;" horiz-adv-x="2308" d="M1854 1335v138l133 24h151l17 -229l-136 -39l-141 8zM1866 47q-1 58 -1 106t1 85q4 106 4 280t-4 416q-1 32 -1 75.5t1 98.5q56 -5 103 -5q106 0 165 25q1 -47 1 -111.5t-1 -146.5q-2 -166 -2 -258l8 -438q0 -63 4 -190q-55 10 -96 10q-84 0 -180 -47zM926 938l6 205h156 q16 152 90 205q49 37 229 69q109 20 203 21q61 0 131 -11l-74 -184q-197 -10 -317 -47q-8 -2 -8 -53h276l-18 -209l-273 2q-2 -78 -2 -174q0 -324 25 -776l-281 -4q11 67 11 287q0 63 -1 139q-3 257 -2 406v122zM76 938l6 205h156q16 152 90 205q49 37 229 69q109 20 203 21 q61 0 131 -11l-74 -184q-197 -10 -317 -47q-8 -2 -8 -53h276l-18 -209l-273 2q-2 -78 -2 -174q0 -324 25 -776l-281 -4q11 67 11 287q0 63 -1 139q-3 257 -2 406v122z" />
<glyph unicode="&#xfb04;" horiz-adv-x="2283" d="M1854 1272v123q111 43 274 43q2 -63 2 -76q-5 -91 -5 -386q0 -221 3 -556q1 -35 1 -94q0 -118 -3 -334q-83 12 -124 12q-15 0 -23 -2q-65 -11 -95 -11q-8 0 -14 1q-13 25 -13 61q0 5 1 10q1 339 1 587q0 495 -5 622zM926 938l6 205h156q16 152 90 205q49 37 229 69 q109 20 203 21q61 0 131 -11l-74 -184q-197 -10 -317 -47q-8 -2 -8 -53h276l-18 -209l-273 2q-2 -78 -2 -174q0 -324 25 -776l-281 -4q11 67 11 287q0 63 -1 139q-3 257 -2 406v122zM76 938l6 205h156q16 152 90 205q49 37 229 69q109 20 203 21q61 0 131 -11l-74 -184 q-197 -10 -317 -47q-8 -2 -8 -53h276l-18 -209l-273 2q-2 -78 -2 -174q0 -324 25 -776l-281 -4q11 67 11 287q0 63 -1 139q-3 257 -2 406v122z" />
</font>
</defs>
</svg>
